<svg width="29" height="33" viewBox="0 0 29 33" fill="none" xmlns="http://www.w3.org/2000/svg">
<path d="M19.3518 18.7666L19.3546 18.7602C19.5258 18.3908 19.5982 17.981 19.5641 17.5755L19.339 14.9006C19.3042 14.4894 19.1615 14.0938 18.9257 13.7549C18.6899 13.416 18.3675 13.1445 17.9939 12.9687L15.5608 11.8259C15.1872 11.65 14.7718 11.5756 14.3606 11.6103C13.9487 11.6451 13.5524 11.7876 13.2129 12.0229L13.2108 12.0244L13.2087 12.0258L9.72943 14.1314C9.69605 14.1548 9.66978 14.1867 9.65273 14.2228C9.63569 14.259 9.62859 14.2994 9.63143 14.3391L10.2259 18.3554V18.3575V18.3596C10.2607 18.7708 10.4034 19.1664 10.6392 19.5053C10.9368 19.9328 11.3103 20.1689 11.5717 20.2915C11.9999 20.4971 12.4353 20.7041 12.8649 20.9055C13.242 21.082 13.6255 21.26 14.0041 21.4344C14.3776 21.6102 14.7931 21.6846 15.2043 21.6499C15.6162 21.6151 16.0125 21.4726 16.352 21.2373L18.5599 19.7052C18.9015 19.4684 19.175 19.1444 19.3504 18.768M19.4157 18.797C19.2375 19.1785 18.9598 19.5138 18.6018 19.7619L16.3939 21.294C15.6815 21.7881 14.7597 21.8654 13.9749 21.4968C13.5943 21.3223 13.2143 21.1458 12.8358 20.9679C12.4033 20.7651 11.9722 20.5602 11.5418 20.3539C11.3458 20.2617 10.9204 20.0299 10.5824 19.5443C10.343 19.2011 10.1932 18.7956 10.157 18.3646L9.56254 14.3462C9.55828 14.2923 9.56822 14.2399 9.59024 14.1924C9.61225 14.1449 9.64705 14.1023 9.6925 14.0711L13.1739 11.9648C13.8862 11.4707 14.808 11.3934 15.5928 11.762L18.0259 12.9049C18.8106 13.2735 19.3383 14.0314 19.4115 14.8942L19.6366 17.5691C19.6728 17.9952 19.5947 18.4142 19.4207 18.7892C19.4193 18.7914 19.4186 18.7935 19.4171 18.7963L19.4157 18.797Z" fill="url(#paint0_linear_20_4287)"/>
<path d="M19.8444 18.3718L19.8472 18.3647C19.9878 17.9578 20.0212 17.5196 19.9417 17.0964L19.4211 14.3059C19.3408 13.877 19.1484 13.4757 18.865 13.1446C18.5809 12.8136 18.213 12.5619 17.8011 12.4165L15.1202 11.4715C14.7083 11.3262 14.2637 11.2921 13.8347 11.3715C13.4051 11.4517 13.0031 11.6438 12.6714 11.9267L12.67 11.9281L12.6679 11.9295L9.23127 14.5122C9.19932 14.5406 9.17446 14.5767 9.16026 14.6172C9.14605 14.6576 9.1425 14.7001 9.15031 14.7412L10.2014 18.9035V18.9056L10.2021 18.9078C10.2824 19.3367 10.4748 19.738 10.7582 20.069C11.1168 20.4873 11.5344 20.6958 11.822 20.7971C12.2943 20.968 12.7737 21.1396 13.2481 21.3062C13.6636 21.4522 14.0854 21.599 14.503 21.7415C14.9149 21.8868 15.3595 21.9208 15.7885 21.8414C16.2181 21.7613 16.6201 21.5692 16.9518 21.2863L19.1121 19.4409C19.4459 19.1559 19.6995 18.7858 19.8444 18.3718ZM19.9154 18.3966C19.7684 18.817 19.512 19.1984 19.1612 19.4983L17.0008 21.3437C16.3041 21.9386 15.3425 22.1179 14.4782 21.8131C14.0591 21.6699 13.6408 21.5245 13.2233 21.3778C12.7467 21.2105 12.2716 21.0403 11.7965 20.8687C11.5806 20.7929 11.1083 20.5937 10.7014 20.1187C10.413 19.7826 10.212 19.3721 10.1282 18.9227L9.07645 14.7582C9.0658 14.7022 9.07077 14.6455 9.08924 14.5938C9.1077 14.542 9.13966 14.4931 9.18369 14.4555L12.6224 11.8714C13.3191 11.2765 14.2807 11.0972 15.145 11.402L17.826 12.3471C18.6903 12.6519 19.3266 13.3935 19.4942 14.2932L20.0148 17.0836C20.0979 17.5281 20.0603 17.9776 19.9175 18.3902C19.9168 18.3931 19.9161 18.3952 19.9147 18.398L19.9154 18.3966Z" fill="url(#paint1_linear_20_4287)"/>
<path d="M20.3213 17.9037L20.3235 17.8959C20.4286 17.4528 20.4165 16.9885 20.2887 16.5518L19.445 13.6713C19.315 13.2289 19.07 12.8269 18.7362 12.5086C18.4024 12.1902 17.9891 11.9641 17.5402 11.8549L14.6199 11.1445C14.1711 11.0354 13.7002 11.046 13.2571 11.1757C12.8139 11.3055 12.4112 11.5501 12.0924 11.8833L12.0909 11.8854L12.0888 11.8868L8.74808 14.9672C8.71683 14.9998 8.69481 15.041 8.68487 15.0849C8.67493 15.1289 8.67564 15.1735 8.68771 15.2168L10.2352 19.484V19.4861L10.2366 19.4883C10.3666 19.9307 10.6116 20.3326 10.9454 20.651C11.3673 21.0529 11.8289 21.228 12.1421 21.3046C12.657 21.4344 13.1797 21.5641 13.696 21.6896C14.1484 21.7995 14.6079 21.9086 15.0617 22.015C15.5105 22.1242 15.9814 22.1135 16.4245 21.9838C16.8677 21.8541 17.2704 21.6095 17.5892 21.2763L19.6658 19.1068C19.9868 18.7715 20.2141 18.3553 20.3228 17.9045M20.398 17.9222C20.288 18.3795 20.0586 18.8084 19.7219 19.1607L17.6453 21.3301C16.9756 22.0299 15.9835 22.3198 15.0411 22.0908C14.5851 21.9845 14.1299 21.876 13.6754 21.7654C13.1562 21.6392 12.6385 21.5109 12.1208 21.3805C11.885 21.323 11.3673 21.1642 10.8886 20.7077C10.5498 20.3844 10.2949 19.9739 10.1585 19.5095L8.6103 15.2402C8.59326 15.1821 8.59254 15.1225 8.60604 15.0658C8.61953 15.0091 8.64865 14.9545 8.69055 14.9105L12.0334 11.8287C12.7031 11.1289 13.6953 10.839 14.6377 11.068L17.558 11.7783C18.4997 12.0073 19.2475 12.7205 19.5195 13.6493L20.3632 16.5298C20.4975 16.9885 20.506 17.4649 20.3995 17.9144C20.3995 17.9172 20.398 17.92 20.3973 17.9229L20.398 17.9222Z" fill="url(#paint2_linear_20_4287)"/>
<path d="M20.7715 17.3618L20.7729 17.3533C20.8361 16.8762 20.7743 16.3884 20.5932 15.9425L19.4001 13.0017C19.2169 12.5501 18.9164 12.1531 18.5315 11.8532C18.1466 11.5533 17.6878 11.3598 17.2042 11.2924L14.0566 10.8543C13.573 10.7869 13.0787 10.8479 12.6263 11.0308C12.1739 11.2137 11.7762 11.5136 11.4758 11.8979L11.4744 11.9L11.4729 11.9021L8.2856 15.4958C8.25648 15.5341 8.23802 15.5788 8.23092 15.6263C8.22382 15.6738 8.23092 15.7206 8.24796 15.7645L10.3288 20.0892L10.3302 20.0913V20.0934C10.5149 20.5451 10.8146 20.9421 11.2002 21.242C11.6867 21.6205 12.1909 21.7559 12.5283 21.8027C13.0836 21.885 13.6475 21.9658 14.2036 22.0431C14.6915 22.1104 15.1865 22.1771 15.6751 22.2409C16.1588 22.3082 16.6531 22.2473 17.1055 22.0643C17.5578 21.8814 17.9556 21.5815 18.256 21.1973L20.2104 18.6954C20.5122 18.3083 20.7075 17.8475 20.7736 17.3611M20.8545 17.3725C20.7871 17.8652 20.5918 18.3409 20.2743 18.7464L18.3199 21.2483C17.6899 22.0551 16.6765 22.4649 15.6616 22.3238C15.1709 22.26 14.6802 22.1941 14.1901 22.126C13.6312 22.0487 13.0723 21.9686 12.5141 21.8857C12.2605 21.8502 11.6988 21.7375 11.147 21.3079C10.7564 21.0037 10.4446 20.5989 10.2521 20.1253L8.16984 15.7979C8.1457 15.739 8.13859 15.6759 8.14712 15.615C8.15564 15.554 8.17978 15.4937 8.21956 15.4427L11.409 11.8476C12.039 11.0408 13.0524 10.631 14.0673 10.7721L17.2148 11.2102C18.2297 11.3513 19.0919 12.0227 19.4768 12.9705L20.6699 15.9113C20.8602 16.3792 20.9192 16.8804 20.8545 17.364C20.8545 17.3668 20.8538 17.3696 20.8531 17.3732L20.8545 17.3725Z" fill="url(#paint3_linear_20_4287)"/>
<path d="M21.1885 16.7426V16.7334C21.2048 16.225 21.0877 15.7181 20.8504 15.2686L19.2831 12.3017C19.0423 11.8458 18.6844 11.4601 18.2476 11.1858C17.8108 10.9114 17.3073 10.7554 16.7917 10.7363L13.4339 10.608C12.9183 10.5881 12.4042 10.7051 11.9475 10.9454C11.4908 11.1858 11.1045 11.5431 10.8297 11.9791L10.8282 11.9812L10.8268 11.9833L7.85468 16.1003C7.8284 16.1435 7.81278 16.1924 7.81135 16.2435C7.80993 16.2945 7.82059 16.3427 7.84402 16.3874L10.4916 20.717L10.493 20.7191L10.4945 20.7212C10.7352 21.1771 11.0931 21.5628 11.5299 21.8371C12.0817 22.1838 12.6264 22.2732 12.9865 22.2866C13.5795 22.3143 14.1811 22.3398 14.7748 22.3625C15.2953 22.3823 15.823 22.4001 16.3436 22.4149C16.8592 22.4348 17.3734 22.3178 17.83 22.0775C18.2867 21.8371 18.673 21.4798 18.9478 21.0438L20.7382 18.2052C21.0152 17.7663 21.1707 17.2601 21.1892 16.7419M21.2766 16.7461C21.2581 17.2715 21.1026 17.7925 20.8121 18.2534L19.0217 21.092C18.4443 22.0073 17.4216 22.5454 16.3393 22.5043C15.8166 22.4887 15.2932 22.4717 14.7705 22.4518C14.1739 22.4291 13.5781 22.4043 12.9815 22.376C12.711 22.3653 12.108 22.3065 11.4816 21.913C11.0385 21.6344 10.6677 21.2416 10.4149 20.7631L7.76519 16.4313C7.73394 16.3718 7.71903 16.3059 7.72187 16.2413C7.72471 16.1768 7.74389 16.1102 7.78011 16.0528L10.7537 11.933C11.3311 11.0177 12.3537 10.4796 13.4361 10.5208L16.7938 10.6491C17.8762 10.6902 18.8548 11.3056 19.3605 12.262L20.9279 15.2289C21.1771 15.7011 21.2929 16.2215 21.2766 16.7376C21.2766 16.7404 21.2766 16.744 21.2766 16.7468V16.7461Z" fill="url(#paint4_linear_20_4287)"/>
<path d="M21.5623 16.0479V16.0379C21.5246 15.5013 21.3478 14.9809 21.0502 14.5328L19.0866 11.5772C18.7847 11.1234 18.3671 10.7548 17.8785 10.5123C17.3899 10.2699 16.8438 10.1593 16.2991 10.1933L12.7531 10.4131C12.2084 10.4471 11.68 10.6236 11.2255 10.9249C10.7709 11.2262 10.4016 11.6431 10.1588 12.1309L10.1573 12.1337L10.1559 12.1365L7.46643 16.7816C7.44299 16.8299 7.43234 16.883 7.43589 16.9362C7.43944 16.9894 7.45648 17.0397 7.48489 17.0844L10.7298 21.3587L10.7312 21.3608L10.7326 21.3629C11.0344 21.8167 11.452 22.1853 11.9406 22.4278C12.5578 22.7341 13.1401 22.7702 13.5208 22.7468C14.1479 22.7135 14.7828 22.6766 15.4099 22.6376C15.9596 22.6029 16.5164 22.566 17.0661 22.527C17.6108 22.493 18.1392 22.3165 18.5937 22.0152C19.0482 21.7139 19.4175 21.297 19.6604 20.8092L21.2427 17.6338C21.487 17.1432 21.5978 16.5945 21.5616 16.0472M21.656 16.0422C21.6922 16.5973 21.5843 17.1616 21.3272 17.6763L19.7449 20.8518C19.235 21.8755 18.2166 22.5497 17.0732 22.6213C16.5214 22.6603 15.9695 22.6972 15.417 22.7319C14.7871 22.7716 14.1571 22.8078 13.5272 22.8411C13.2417 22.8588 12.6011 22.8603 11.9001 22.5122C11.4044 22.2661 10.9726 21.8918 10.6559 21.4154L7.4089 17.1382C7.36913 17.0787 7.34711 17.0113 7.34285 16.9426C7.33859 16.8731 7.35209 16.8022 7.38405 16.7377L10.075 12.0898C10.5849 11.066 11.6033 10.3918 12.7467 10.3202L16.2927 10.1004C17.4361 10.0295 18.5305 10.5726 19.1633 11.5254L21.1269 14.4811C21.4394 14.9518 21.6163 15.4871 21.6539 16.0316C21.6539 16.0351 21.6539 16.0379 21.6539 16.0415L21.656 16.0422Z" fill="url(#paint5_linear_20_4287)"/>
<path d="M21.8808 15.2783L21.8794 15.2684C21.7835 14.7076 21.542 14.1794 21.1812 13.7391L18.8021 10.8381C18.4364 10.3921 17.9584 10.049 17.4187 9.84554C16.8789 9.64207 16.293 9.58394 15.7234 9.67681L12.0169 10.283C11.4474 10.3758 10.9105 10.6183 10.4645 10.9827C10.0178 11.3478 9.67403 11.825 9.4702 12.3638L9.46878 12.3666L9.46736 12.3694L7.13155 17.5406C7.11237 17.5938 7.10669 17.6512 7.11592 17.7065C7.12515 17.7618 7.14859 17.8135 7.18339 17.8568L11.0504 22.0099L11.0525 22.012L11.0546 22.0141C11.4204 22.46 11.8983 22.8032 12.4381 23.0066C13.1199 23.264 13.7363 23.2406 14.134 23.1754C14.7895 23.074 15.4543 22.9684 16.1091 22.8606C16.6836 22.7663 17.2653 22.6685 17.8391 22.5692C18.4087 22.4763 18.9456 22.2339 19.3916 21.8695C19.8383 21.5044 20.182 21.0272 20.3858 20.4884L21.7132 16.9812C21.9184 16.4389 21.9759 15.8497 21.8801 15.2783M21.9781 15.262C22.0754 15.8419 22.0214 16.4467 21.8055 17.0159L20.4782 20.5232C20.0499 21.654 19.0507 22.4714 17.8554 22.6671C17.2795 22.7663 16.7021 22.8634 16.1254 22.9584C15.467 23.0662 14.808 23.1718 14.1489 23.2732C13.8499 23.3221 13.1767 23.3909 12.4026 23.0995C11.855 22.8932 11.3607 22.5451 10.9772 22.0772L7.10811 17.9213C7.06053 17.8632 7.02999 17.7944 7.01792 17.7228C7.00584 17.6512 7.01223 17.5739 7.03922 17.503L9.37646 12.329C9.8047 11.1982 10.8039 10.3808 11.9992 10.1851L15.7057 9.57897C16.9009 9.3833 18.1097 9.83916 18.8767 10.775L21.2558 13.676C21.6343 14.1383 21.8772 14.6821 21.9745 15.2514C21.9745 15.2549 21.9759 15.2584 21.9759 15.262H21.9781Z" fill="url(#paint6_linear_20_4287)"/>
<path d="M22.1364 14.4335L22.1336 14.4229C21.9731 13.8437 21.6634 13.3127 21.2373 12.888L18.4264 10.0876C17.9946 9.6573 17.4548 9.34748 16.8654 9.19009C16.2759 9.03341 15.6531 9.03341 15.0643 9.19222L11.23 10.2223C10.6413 10.3804 10.1022 10.6917 9.67115 11.1227C9.24007 11.5538 8.92972 12.0926 8.77205 12.681V12.6838L8.76992 12.6867L6.86093 18.3732C6.84602 18.4314 6.84673 18.4923 6.86235 18.5498C6.87798 18.6072 6.9078 18.6589 6.94971 18.7008L11.458 22.661L11.4601 22.6631L11.4623 22.6653C11.894 23.0956 12.4338 23.4054 13.0233 23.5628C13.7675 23.7613 14.4138 23.6713 14.825 23.5607C15.5039 23.3849 16.1921 23.2027 16.8696 23.0205C17.4641 22.8602 18.0656 22.6957 18.6586 22.5313C19.2474 22.3732 19.7864 22.0619 20.2175 21.6309C20.6486 21.1998 20.9589 20.661 21.1166 20.0726L22.1407 16.2428C22.299 15.6508 22.2976 15.0248 22.1357 14.4335M22.2365 14.4066C22.4006 15.0064 22.4077 15.6487 22.2415 16.2698L21.2174 20.0995C20.8872 21.3345 19.922 22.3002 18.6856 22.6319C18.0897 22.7978 17.4932 22.9609 16.8966 23.1211C16.2156 23.3047 15.5338 23.4848 14.8513 23.6614C14.5423 23.7443 13.8414 23.8882 12.9963 23.6635C12.3983 23.504 11.8415 23.1906 11.3884 22.739L6.87727 18.7766C6.82116 18.7206 6.78139 18.6511 6.76151 18.5774C6.74162 18.5037 6.7402 18.4214 6.76151 18.3442L8.67121 12.6548C9.00144 11.4198 9.96659 10.4542 11.203 10.1224L15.0374 9.09226C16.2738 8.76046 17.594 9.11211 18.5002 10.0146L21.3112 12.815C21.7586 13.2609 22.0718 13.8075 22.2344 14.396C22.2351 14.3995 22.2365 14.4031 22.2373 14.4066H22.2365Z" fill="url(#paint7_linear_20_4287)"/>
<path d="M22.3123 13.5191L22.308 13.5084C22.0779 12.9157 21.6958 12.3904 21.2023 11.9884L17.9482 9.33975C17.4482 8.93281 16.8474 8.6634 16.211 8.5606C15.5747 8.4578 14.9192 8.52445 14.3163 8.75273L10.3917 10.2415C9.7888 10.4705 9.25473 10.8548 8.84708 11.3539C8.43944 11.853 8.16956 12.4528 8.06658 13.088V13.0916L8.06517 13.0951L6.66041 19.2786C6.65118 19.341 6.65757 19.4048 6.68029 19.4644C6.70302 19.5225 6.73995 19.5743 6.78753 19.614L11.9506 23.3027L11.9535 23.3048L11.9563 23.3069C12.4563 23.7139 13.0571 23.9833 13.6934 24.0861C14.4974 24.2158 15.1678 24.0535 15.5889 23.8932C16.2849 23.6366 16.9887 23.3722 17.6826 23.1091C18.2905 22.878 18.9062 22.6412 19.5127 22.4051C20.1157 22.1761 20.6497 21.7919 21.0574 21.2928C21.465 20.7937 21.7349 20.1939 21.8379 19.5587L22.5083 15.4212C22.612 14.7817 22.5438 14.1238 22.3116 13.5191M22.4153 13.4801C22.6511 14.0933 22.727 14.7682 22.6184 15.4396L21.948 19.5771C21.7321 20.9114 20.8188 22.0287 19.5532 22.5086C18.9439 22.7461 18.3338 22.9808 17.723 23.2126C17.0263 23.4778 16.3282 23.7394 15.6287 23.9975C15.3127 24.1173 14.5904 24.3427 13.6771 24.1953C13.0315 24.091 12.4122 23.8202 11.8881 23.3927L6.72219 19.7019C6.65686 19.6487 6.60785 19.5799 6.57874 19.5041C6.54891 19.4275 6.53968 19.3424 6.55317 19.2588L7.95864 13.0717C8.17453 11.7374 9.08784 10.6201 10.3534 10.1402L14.2779 8.65135C15.5435 8.17139 16.9695 8.4018 18.0185 9.25538L21.2726 11.9041C21.791 12.3259 22.1781 12.8682 22.4117 13.4694C22.4131 13.473 22.4146 13.4765 22.416 13.4808L22.4153 13.4801Z" fill="url(#paint8_linear_20_4287)"/>
<path d="M22.402 12.5388L22.3963 12.5281C22.0916 11.9291 21.6336 11.4165 21.0718 11.0464L17.3682 8.60477C16.7993 8.22973 16.1388 8.00995 15.4585 7.96883C14.7781 7.92772 14.0956 8.06738 13.4863 8.37152L9.51559 10.3524C8.90554 10.6565 8.38497 11.118 8.00928 11.6859C7.63359 12.2538 7.41343 12.9131 7.37224 13.5923V13.5958V13.5994L6.55126 20.253C6.54771 20.3196 6.56191 20.3862 6.59174 20.4458C6.62157 20.5053 6.66631 20.555 6.721 20.5918L12.5431 23.9261L12.546 23.9282L12.5488 23.9303C13.1177 24.3054 13.7782 24.5251 14.4585 24.5663C15.3186 24.618 16.006 24.3755 16.4321 24.1629C17.1366 23.819 17.8497 23.4667 18.5513 23.1164C19.1664 22.8087 19.7885 22.4947 20.4021 22.182C21.0122 21.8779 21.5327 21.4164 21.9084 20.8485C22.2841 20.2806 22.5043 19.6213 22.5455 18.9421L22.8118 14.5189C22.853 13.8348 22.7116 13.1499 22.4027 12.5388M22.5064 12.4863C22.8196 13.1067 22.9709 13.8085 22.9275 14.526L22.6612 18.9492C22.5753 20.3756 21.7337 21.6475 20.4532 22.2862C19.8375 22.6003 19.2211 22.9115 18.6025 23.2207C17.8973 23.573 17.1906 23.9218 16.4826 24.2678C16.1623 24.4273 15.4265 24.7414 14.4507 24.6825C13.7604 24.6414 13.0807 24.4216 12.4835 24.0274L6.65779 20.6911C6.58322 20.6422 6.52498 20.5755 6.48592 20.4983C6.44686 20.421 6.42769 20.3324 6.43337 20.2423L7.25506 13.5852C7.34099 12.1588 8.18257 10.8869 9.46304 10.2481L13.4337 8.26731C14.7142 7.62853 16.2383 7.71999 17.4328 8.50764L21.1364 10.9493C21.7259 11.3378 22.1911 11.8674 22.5007 12.4757C22.5028 12.4792 22.5043 12.4835 22.5064 12.487V12.4863Z" fill="url(#paint9_linear_20_4287)"/>
<path d="M22.3912 11.4972L22.3841 11.4865C21.9999 10.8889 21.4637 10.3983 20.8338 10.0679L16.6785 7.89068C16.04 7.55605 15.322 7.39512 14.6019 7.42419C13.8817 7.45325 13.1787 7.67161 12.5693 8.05658L8.6029 10.5606C7.99356 10.9456 7.4943 11.4851 7.1598 12.1225C6.82458 12.7598 6.66337 13.4766 6.69249 14.1954V14.199V14.2025L6.53483 21.2879C6.53838 21.3581 6.56039 21.4268 6.59803 21.4864C6.63568 21.5459 6.68752 21.5934 6.74931 21.6267L13.2277 24.5186L13.2312 24.52L13.2348 24.5221C13.8732 24.8568 14.5912 25.0177 15.3114 24.9886C16.2211 24.9518 16.9185 24.6249 17.3446 24.3555C18.0491 23.9195 18.7622 23.4736 19.4624 23.0305C20.0767 22.642 20.6981 22.2457 21.3096 21.8522C21.919 21.4672 22.4182 20.9277 22.7527 20.2904C23.0879 19.653 23.2492 18.9363 23.22 18.2174L23.0311 13.5361C23.002 12.8123 22.7804 12.1069 22.3905 11.4957M22.4956 11.4312C22.8912 12.0508 23.1249 12.7733 23.1554 13.5326L23.3443 18.2138C23.4054 19.7232 22.6547 21.1503 21.3764 21.9578C20.7621 22.3534 20.1463 22.7462 19.5292 23.1361C18.8247 23.5813 18.1187 24.023 17.41 24.4619C17.0904 24.6639 16.3497 25.0716 15.317 25.1127C14.5863 25.1418 13.8484 24.983 13.1779 24.632L6.69533 21.7381C6.61153 21.6941 6.54335 21.6303 6.49434 21.5537C6.44534 21.4772 6.41552 21.3857 6.41196 21.29L6.56963 14.2004C6.50855 12.691 7.25922 11.2639 8.53756 10.4564L12.504 7.95236C13.783 7.14486 15.3959 7.08034 16.736 7.78221L20.8913 9.95942C21.5532 10.3061 22.0986 10.8137 22.4885 11.4206C22.4907 11.4241 22.4935 11.4284 22.4956 11.4319V11.4312Z" fill="url(#paint10_linear_20_4287)"/>
<path d="M22.271 10.4029L22.2625 10.3923C21.7952 9.80381 21.1788 9.34441 20.4814 9.06366L15.8793 7.21328C15.1727 6.92899 14.4 6.83541 13.6451 6.94175C12.8901 7.04809 12.1743 7.35295 11.5741 7.82157L7.66739 10.8751C7.06728 11.3444 6.59998 11.9647 6.31519 12.6708C6.0304 13.3763 5.93666 14.1476 6.04319 14.9012V14.9055L6.0439 14.9097L6.6298 22.38C6.64117 22.4538 6.671 22.5239 6.71787 22.5821C6.76474 22.6402 6.82369 22.6856 6.89186 22.7132L14.0137 25.0705L14.0172 25.0719L14.0208 25.0734C14.7274 25.3577 15.5001 25.4512 16.255 25.3449C17.2081 25.2102 17.9069 24.7919 18.3266 24.4644C19.0219 23.9312 19.7236 23.3867 20.4139 22.8465C21.019 22.3729 21.6304 21.8901 22.232 21.4116C22.8321 20.9423 23.2994 20.3219 23.5842 19.6158C23.869 18.9104 23.9627 18.139 23.8562 17.3854L23.1609 12.4816C23.0537 11.7237 22.7454 11.0048 22.2703 10.4036M22.3733 10.3228C22.8548 10.9325 23.1772 11.6677 23.2902 12.4631L23.9854 17.367C24.2098 18.948 23.5721 20.5289 22.3122 21.5137C21.7078 21.9944 21.1021 22.4729 20.4941 22.9486C19.8003 23.4917 19.1043 24.0312 18.4062 24.5672C18.0916 24.8132 17.3551 25.3208 16.2735 25.4732C15.5079 25.5817 14.7146 25.4916 13.9725 25.1939L6.84641 22.8352C6.75409 22.7983 6.67526 22.7381 6.6156 22.6622C6.55594 22.5863 6.51475 22.4935 6.50055 22.3942L5.91464 14.9197C5.69022 13.3387 6.32797 11.7577 7.58785 10.773L11.4946 7.71948C12.7545 6.73473 14.4447 6.49582 15.9283 7.09276L20.5304 8.94314C21.2633 9.23807 21.8904 9.71449 22.3655 10.3114C22.3683 10.315 22.3712 10.3185 22.374 10.3228H22.3733Z" fill="url(#paint11_linear_20_4287)"/>
<path d="M22.027 9.26456L22.017 9.25393C21.4624 8.68463 20.7657 8.26635 20.0022 8.04515L14.9648 6.58541C14.1907 6.36138 13.3683 6.34436 12.5857 6.53578C11.8031 6.72791 11.0822 7.12351 10.5006 7.68075L6.71527 11.3057C6.13363 11.8622 5.70751 12.5648 5.48309 13.3375C5.25867 14.1103 5.24163 14.9313 5.43338 15.7125V15.7168L5.43551 15.721L6.84453 23.5175C6.86441 23.594 6.90347 23.6642 6.95816 23.7209C7.01284 23.7776 7.08031 23.8181 7.15488 23.8407L14.8967 25.5671H14.9009L14.9052 25.5692C15.6793 25.7932 16.5017 25.8102 17.2843 25.6188C18.2729 25.3763 18.9639 24.8624 19.3702 24.4731C20.0448 23.8386 20.7259 23.192 21.3942 22.5504C21.9808 21.9882 22.5724 21.4161 23.1548 20.8482C23.7364 20.2917 24.1625 19.5891 24.3869 18.8164C24.6114 18.0436 24.6284 17.2226 24.4366 16.4413L23.1846 11.356C22.9907 10.5698 22.5909 9.84662 22.0277 9.26385M22.1264 9.16885C22.6981 9.75941 23.115 10.4989 23.3181 11.3234L24.5702 16.4087C24.9743 18.0486 24.4707 19.7784 23.2499 20.9475C22.6654 21.5168 22.0788 22.0847 21.4894 22.649C20.8175 23.2934 20.1421 23.9343 19.4646 24.5724C19.1592 24.8645 18.4391 25.4763 17.317 25.7514C16.523 25.9463 15.6793 25.9357 14.8668 25.7003L7.12008 23.9726C7.01924 23.9435 6.92904 23.8882 6.85873 23.8152C6.787 23.7415 6.73516 23.6486 6.70959 23.5451L5.29986 15.7444C4.89648 14.1046 5.39929 12.3748 6.62011 11.2057L10.4054 7.58079C11.6262 6.41171 13.3783 5.98208 15.0032 6.45283L20.0406 7.91258C20.8424 8.14512 21.5533 8.57971 22.1157 9.15751C22.1193 9.16105 22.1228 9.1646 22.1264 9.16814V9.16885Z" fill="url(#paint12_linear_20_4287)"/>
<path d="M21.6508 8.09245L21.6395 8.08253C20.996 7.5423 20.2184 7.17577 19.3917 7.02405L13.9374 6.02088C13.0994 5.86703 12.2323 5.9358 11.4298 6.2208C10.6272 6.5058 9.91066 6.99782 9.35813 7.6451L5.76102 11.8584C5.20849 12.5057 4.83493 13.2898 4.68011 14.1264C4.526 14.963 4.59489 15.8286 4.88039 16.6297L4.88181 16.634L4.88323 16.6382L7.19276 24.6906C7.22117 24.7686 7.27017 24.8388 7.33409 24.8926C7.39801 24.9465 7.47329 24.982 7.55425 24.9976L15.8812 25.9951H15.8855L15.8898 25.9965C16.7278 26.1503 17.5949 26.0816 18.3974 25.7966C19.4116 25.4371 20.0841 24.8232 20.4698 24.3708C21.1118 23.6321 21.7595 22.8792 22.3951 22.1348C22.9519 21.4818 23.5144 20.8168 24.0662 20.1582C24.6187 19.5109 24.9923 18.7268 25.1471 17.8903C25.3012 17.0537 25.2323 16.188 24.9468 15.3869L23.0904 10.1704C22.8035 9.36361 22.3056 8.64544 21.6515 8.09174M21.7446 7.98114C22.4086 8.54193 22.9256 9.2757 23.2267 10.1215L25.0832 15.3387C25.6819 17.0211 25.336 18.8941 24.1763 20.2525C23.6216 20.9133 23.0648 21.5726 22.5052 22.2291C21.8667 22.9777 21.2247 23.7236 20.5791 24.4666C20.2894 24.8061 19.5962 25.5257 18.445 25.9341C17.6304 26.2226 16.7413 26.3013 15.8621 26.1397L7.53011 25.1415C7.42074 25.1216 7.3206 25.0727 7.23822 25.0032C7.15512 24.933 7.0905 24.8409 7.05215 24.7352L4.74119 16.6786C4.1425 14.9963 4.48836 13.1232 5.6481 11.7649L9.24521 7.55152C10.405 6.19315 12.2032 5.55509 13.9616 5.87837L19.4158 6.88155C20.2844 7.04107 21.0777 7.42319 21.7311 7.97193C21.7353 7.97547 21.7389 7.97902 21.7431 7.98185L21.7446 7.98114Z" fill="url(#paint13_linear_20_4287)"/>
<path d="M21.1294 6.89958L21.1159 6.89036C20.3815 6.38984 19.525 6.08711 18.6387 6.0148L12.7946 5.53625C11.8969 5.46252 10.9921 5.627 10.1782 6.01126C9.36434 6.39551 8.66268 6.98962 8.14992 7.72906L4.81274 12.5422C4.29998 13.2816 3.99034 14.1458 3.91648 15.042C3.84262 15.9381 4.00738 16.8413 4.3923 17.6538L4.39443 17.658L4.39656 17.6623L7.68048 25.8883C7.71883 25.9677 7.77778 26.0358 7.85022 26.0861C7.92266 26.1365 8.00575 26.1655 8.09239 26.1733L16.9577 26.3421H16.9627H16.9676C17.8653 26.4158 18.7701 26.2513 19.584 25.8671C20.6123 25.3814 21.2543 24.6647 21.613 24.1485C22.2103 23.3035 22.8118 22.4435 23.4005 21.5927C23.9176 20.8469 24.4381 20.0883 24.9488 19.3368C25.4615 18.5974 25.7712 17.7332 25.845 16.8371C25.9189 15.9409 25.7541 15.0377 25.3692 14.2252L22.8622 8.93358C22.4745 8.11544 21.8751 7.41216 21.1279 6.89958M21.2167 6.77339C21.9745 7.29305 22.5966 8.00981 23.0028 8.86836L25.5098 14.16C26.318 15.8665 26.1532 17.8735 25.0773 19.4255C24.5645 20.1798 24.0482 20.9313 23.5291 21.6814C22.9368 22.5364 22.3409 23.3892 21.7401 24.2386C21.471 24.6264 20.8183 25.4566 19.6514 26.0074C18.8255 26.3974 17.8987 26.5739 16.9563 26.4966L8.08529 26.3279C7.96811 26.3179 7.85732 26.2782 7.76358 26.2137C7.66983 26.1492 7.59029 26.0585 7.53987 25.9514L4.25382 17.7204C3.44562 16.0139 3.61038 14.0069 4.68632 12.455L8.02351 7.64186C9.09944 6.08995 10.9232 5.22928 12.8073 5.38312L18.6515 5.86167C19.5818 5.93752 20.4575 6.25585 21.2025 6.76417C21.2068 6.76701 21.2117 6.77055 21.216 6.77339H21.2167Z" fill="url(#paint14_linear_20_4287)"/>
<path d="M20.4557 5.6998L20.4408 5.69129C19.6156 5.24252 18.6824 5.01424 17.7421 5.03196L11.5435 5.14681C10.5912 5.16453 9.65728 5.43323 8.84127 5.92312C8.02526 6.41372 7.35058 7.11275 6.89038 7.94436L3.89054 13.3601C3.42962 14.1917 3.19526 15.1339 3.21301 16.0846C3.23077 17.0353 3.49993 17.9676 3.99067 18.7822L3.99352 18.7865L3.99565 18.7907L8.32283 27.0969C8.37184 27.1763 8.44073 27.2422 8.5224 27.2869C8.60407 27.3315 8.69426 27.3542 8.78659 27.3528L18.1306 26.5928H18.1355H18.1405C19.0929 26.5751 20.0268 26.3064 20.8428 25.8165C21.8733 25.1969 22.4727 24.3752 22.7944 23.7938C23.3327 22.8417 23.8746 21.8733 24.4037 20.9162C24.8681 20.0768 25.3354 19.2239 25.7935 18.3795C26.2544 17.5479 26.4888 16.6057 26.471 15.655C26.4533 14.7043 26.1841 13.772 25.6934 12.9574L22.4947 7.65652C22.0004 6.83697 21.2945 6.16062 20.4543 5.70051M20.5338 5.5573C21.3861 6.02379 22.1161 6.71219 22.6353 7.57216L25.834 12.873C26.8652 14.5823 26.905 16.7113 25.9377 18.4575C25.4782 19.3047 25.0151 20.1505 24.5485 20.9942C24.0166 21.9562 23.4797 22.9161 22.9385 23.8732C22.6971 24.3099 22.0984 25.2522 20.9287 25.9554C20.1013 26.4531 19.1447 26.7367 18.1455 26.7551L8.79582 27.5159C8.67154 27.518 8.5508 27.4875 8.4457 27.4294C8.33917 27.3705 8.24755 27.2847 8.18222 27.177L3.85219 18.8659C2.82099 17.1566 2.78122 15.0276 3.7485 13.2814L6.74834 7.86566C7.71562 6.1195 9.54223 5.02062 11.5414 4.98375L17.74 4.8689C18.7271 4.85047 19.6816 5.09293 20.5196 5.54808C20.5246 5.55092 20.5296 5.55375 20.5353 5.55659L20.5338 5.5573Z" fill="url(#paint15_linear_20_4287)"/>
<path d="M19.6182 4.50938L19.6019 4.50229C18.6858 4.11732 17.6801 3.97624 16.693 4.09393L10.1848 4.87024C9.18483 4.98934 8.23105 5.37076 7.42498 5.97267C6.61892 6.57457 5.9833 7.38137 5.58701 8.30514L3.00618 14.3192C2.60989 15.243 2.46359 16.2589 2.58291 17.2564C2.70222 18.2547 3.0843 19.2068 3.68725 20.0115L3.6908 20.0157L3.69364 20.02L9.12731 28.2999C9.18696 28.3786 9.2665 28.4403 9.35741 28.4785C9.44831 28.5168 9.54561 28.531 9.6422 28.5204L19.391 26.7324H19.3959L19.4016 26.731C20.4016 26.6119 21.3554 26.2304 22.1614 25.6285C23.1798 24.8678 23.7231 23.9398 24.0001 23.2946C24.4653 22.2362 24.9326 21.16 25.3878 20.0972C25.7869 19.165 26.1882 18.2185 26.5802 17.282C26.9765 16.3582 27.1228 15.3423 27.0035 14.3448C26.8842 13.3465 26.5021 12.3944 25.8992 11.5897L21.9718 6.35125C21.3646 5.54162 20.5507 4.90427 19.6182 4.50938ZM19.6857 4.35128C20.6317 4.75184 21.4733 5.39912 22.1103 6.24845L26.0376 11.4869C27.3039 13.1757 27.5717 15.411 26.7393 17.35C26.3459 18.2901 25.9482 19.2288 25.5469 20.1653C25.0888 21.2337 24.6265 22.3 24.1585 23.3641C23.9504 23.8491 23.4213 24.9033 22.2651 25.7668C21.4477 26.3779 20.4712 26.7771 19.4222 26.9025L9.66776 28.6912C9.53709 28.7068 9.40712 28.687 9.28994 28.6374C9.17276 28.5877 9.06623 28.5062 8.98598 28.3999L3.54947 20.115C2.28321 18.4262 2.01546 16.1909 2.84781 14.2519L5.42864 8.23779C6.26098 6.29879 8.06628 4.94964 10.1649 4.69938L16.6731 3.92307C17.7092 3.79971 18.739 3.95285 19.6687 4.34348C19.6743 4.34561 19.68 4.34844 19.6857 4.35057V4.35128Z" fill="url(#paint16_linear_20_4287)"/>
<path d="M18.613 3.34556L18.5946 3.33989C17.5904 3.0322 16.5173 2.98967 15.4917 3.21795L8.72789 4.72236C7.68888 4.95348 6.72515 5.45542 5.94181 6.17431C5.15776 6.89319 4.5747 7.80846 4.25582 8.82227L2.17923 15.422C1.86035 16.4358 1.81419 17.5198 2.04571 18.557C2.27723 19.5942 2.78005 20.5562 3.50018 21.3382L3.50373 21.3425L3.50728 21.3467L10.1014 29.482C10.1724 29.5579 10.2626 29.6146 10.3627 29.6458C10.4629 29.677 10.5666 29.6812 10.6667 29.6593L20.7315 26.7476L20.7372 26.7462L20.7429 26.7447C21.7819 26.5136 22.7456 26.0117 23.529 25.2928C24.5197 24.3846 24.9927 23.3517 25.2157 22.6434C25.5928 21.4807 25.9699 20.2996 26.3363 19.1334C26.6574 18.1103 26.9791 17.0724 27.2923 16.0458C27.6111 15.032 27.6573 13.948 27.4258 12.9108C27.1943 11.8736 26.6914 10.9116 25.9713 10.1296L21.2841 5.0343C20.5597 4.24665 19.6357 3.66247 18.6123 3.34556M18.667 3.17187C19.7046 3.49374 20.6584 4.08501 21.419 4.91165L26.1062 10.0069C27.6175 11.6496 28.136 13.9728 27.4663 16.1004C27.1516 17.1305 26.8335 18.16 26.5103 19.1879C26.1425 20.3606 25.7682 21.5311 25.3897 22.7001C25.2221 23.2318 24.7775 24.3974 23.6532 25.4275C22.8578 26.1563 21.8735 26.6802 20.7834 26.9227L10.7122 29.8358C10.5765 29.8663 10.4373 29.8592 10.3095 29.8195C10.1795 29.7791 10.0602 29.7053 9.96433 29.6011L3.36595 21.4609C1.85467 19.8182 1.33623 17.495 2.00594 15.3674L4.08254 8.76768C4.75224 6.63938 6.50784 5.03005 8.68883 4.54512L15.4527 3.04071C16.5293 2.80108 17.6294 2.85355 18.6485 3.1662C18.6549 3.16832 18.6613 3.16974 18.667 3.17187Z" fill="url(#paint17_linear_20_4287)"/>
<path d="M17.43 2.22748L17.4101 2.22323C16.3206 2.00558 15.1879 2.07435 14.1325 2.42315L7.17766 4.72089C6.10953 5.07395 5.14935 5.7035 4.40081 6.54291C3.65227 7.38161 3.13596 8.40676 2.90799 9.50707L1.4237 16.669C1.19572 17.7693 1.26177 18.9142 1.61545 19.9805C1.96912 21.0468 2.59977 22.0053 3.44064 22.7525L3.4449 22.7568L3.44916 22.761L11.2492 30.622C11.3323 30.6943 11.4331 30.7446 11.5411 30.7666C11.6476 30.7886 11.7591 30.7822 11.8628 30.7489L22.1414 26.622L22.147 26.6199L22.1527 26.6178C23.2208 26.2647 24.181 25.6352 24.9296 24.7957C25.8748 23.7359 26.2633 22.5987 26.4224 21.8302C26.6958 20.5668 26.9671 19.285 27.2285 18.0188C27.4578 16.9086 27.6858 15.7828 27.906 14.6697C28.1339 13.5694 28.0679 12.4244 27.7142 11.3582C27.3605 10.2919 26.7299 9.33337 25.889 8.58613L20.4199 3.72126C19.574 2.96905 18.54 2.45293 17.43 2.22748ZM17.4683 2.0389C18.594 2.26789 19.66 2.78898 20.5477 3.57805L26.0183 8.44221C27.7824 10.0104 28.5743 12.3996 28.0956 14.7087C27.874 15.826 27.6482 16.9419 27.4181 18.0578C27.1553 19.3304 26.8861 20.6008 26.6113 21.8706C26.492 22.4477 26.1468 23.7203 25.0737 24.9234C24.3145 25.7741 23.3345 26.4292 22.2131 26.8L11.9281 30.9297C11.7882 30.9757 11.6419 30.9835 11.5027 30.9552C11.3614 30.9268 11.2279 30.8609 11.1164 30.7623L3.31138 22.8972C1.54727 21.3289 0.755409 18.9398 1.23408 16.6307L2.71837 9.46878C3.19704 7.1597 4.87309 5.28026 7.11587 4.53939L14.0708 2.24166C15.1779 1.87584 16.3405 1.81487 17.4463 2.03606C17.4534 2.03748 17.4598 2.0389 17.4669 2.04032L17.4683 2.0389Z" fill="url(#paint18_linear_20_4287)"/>
<path d="M16.0676 1.17637L16.0463 1.17424C14.8773 1.0601 13.6927 1.25293 12.6203 1.73077L5.54752 4.88351C4.46093 5.36773 3.5178 6.13199 2.81968 7.09333C2.12156 8.05468 1.68693 9.1876 1.56407 10.3687L0.762972 18.0595C0.640108 19.2406 0.83115 20.4388 1.31621 21.5228C1.80127 22.6075 2.56685 23.549 3.52987 24.2459L3.53484 24.2494L3.53982 24.2537L12.5791 31.6977C12.6743 31.7651 12.7858 31.8069 12.9015 31.819C13.0159 31.8303 13.1324 31.8126 13.2382 31.7665L23.6133 26.338L23.619 26.3352L23.6247 26.3323C24.7113 25.8481 25.6544 25.0839 26.3525 24.1225C27.2346 22.9074 27.5222 21.6709 27.6082 20.845C27.7616 19.4873 27.9107 18.1098 28.052 16.7508C28.1756 15.559 28.2956 14.3502 28.4093 13.1563C28.5321 11.9752 28.3411 10.7771 27.856 9.69308C27.371 8.60838 26.6054 7.66688 25.6424 6.96997L19.3707 2.43193C18.4013 1.73006 17.2586 1.29618 16.0676 1.17637ZM16.0875 0.974314C17.2962 1.09555 18.4723 1.53156 19.49 2.26745L25.7617 6.8055C27.7836 8.26879 28.8702 10.6984 28.6117 13.1776C28.4973 14.3765 28.378 15.5746 28.2544 16.772C28.1131 18.1382 27.9647 19.5036 27.8106 20.8684C27.7459 21.488 27.5187 22.8634 26.5173 24.2423C25.8092 25.2179 24.8477 26.0105 23.7078 26.5188L13.3269 31.9501C13.1849 32.0132 13.0315 32.0366 12.8817 32.0217C12.7304 32.0068 12.5827 31.9522 12.4548 31.8594L3.40985 24.4111C1.38794 22.9478 0.301346 20.5189 0.559856 18.0389L1.36095 10.3482C1.61946 7.86822 3.1833 5.71441 5.46372 4.69776L12.5365 1.54503C13.6629 1.04308 14.8787 0.855918 16.0654 0.971478C16.0725 0.971478 16.0796 0.972896 16.0875 0.973605V0.974314Z" fill="url(#paint19_linear_20_4287)"/>
<path d="M14.5235 0.214814H14.5008C13.2594 0.219068 12.0329 0.546607 10.9555 1.16269L3.85008 5.22715C2.75852 5.85174 1.84734 6.75495 1.21527 7.84037C0.582495 8.92578 0.246576 10.1629 0.242315 11.4192L0.215328 19.5942C0.211065 20.8498 0.539885 22.0897 1.16485 23.1787C1.79053 24.2684 2.69531 25.1779 3.78261 25.8089L3.78829 25.8125L3.79397 25.816L14.0924 32.6908C14.1997 32.7517 14.3211 32.7836 14.4447 32.7836C14.5683 32.7836 14.6869 32.7525 14.7927 32.6929L25.1302 25.8855L25.1359 25.8819L25.1416 25.8784C26.2331 25.2538 27.1443 24.3506 27.7764 23.2652C28.5754 21.8941 28.7465 20.5619 28.7494 19.6849C28.7671 18.2408 28.7778 16.7761 28.7813 15.3312C28.7849 14.0643 28.7827 12.7804 28.7756 11.5121C28.7799 10.2565 28.4511 9.01653 27.8261 7.92757C27.2004 6.8379 26.2956 5.92831 25.2083 5.29734L18.1299 1.1868C17.0355 0.55157 15.7877 0.215523 14.5214 0.215523M14.5235 0C15.8076 0 17.0916 0.333919 18.24 1.00034L25.3184 5.11088C27.601 6.43663 29.0015 8.87687 28.9929 11.5128C29 12.7861 29.0015 14.0586 28.9986 15.3319C28.9944 16.7839 28.9837 18.2358 28.9667 19.6878C28.9645 20.3471 28.8715 21.8175 27.9646 23.3736C27.3233 24.4747 26.3958 25.4105 25.2502 26.0656L14.9063 32.8772C14.7636 32.9588 14.6045 32.9999 14.4454 32.9999C14.2863 32.9999 14.1237 32.9581 13.9795 32.8744L3.67466 25.9954C1.39211 24.6696 -0.0083828 22.2294 0.000139236 19.5935L0.0271282 11.4185C0.0356503 8.78257 1.45248 6.35156 3.74355 5.04069L10.849 0.976236C11.9803 0.329666 13.2402 0.00425375 14.5001 0C14.5079 0 14.5157 0 14.5235 0Z" fill="url(#paint20_linear_20_4287)"/>
<path d="M19.3518 18.7666L19.3546 18.7602C19.5258 18.3908 19.5982 17.981 19.5641 17.5755L19.339 14.9006C19.3042 14.4894 19.1615 14.0938 18.9257 13.7549C18.6899 13.416 18.3675 13.1445 17.9939 12.9687L15.5608 11.8259C15.1872 11.65 14.7718 11.5756 14.3606 11.6103C13.9487 11.6451 13.5524 11.7876 13.2129 12.0229L13.2108 12.0244L13.2087 12.0258L9.72943 14.1314C9.69605 14.1548 9.66978 14.1867 9.65273 14.2228C9.63569 14.259 9.62859 14.2994 9.63143 14.3391L10.2259 18.3554V18.3575V18.3596C10.2607 18.7708 10.4034 19.1664 10.6392 19.5053C10.9368 19.9328 11.3103 20.1689 11.5717 20.2915C11.9999 20.4971 12.4353 20.7041 12.8649 20.9055C13.242 21.082 13.6255 21.26 14.0041 21.4344C14.3776 21.6102 14.7931 21.6846 15.2043 21.6499C15.6162 21.6151 16.0125 21.4726 16.352 21.2373L18.5599 19.7052C18.9015 19.4684 19.175 19.1444 19.3504 18.768M19.4157 18.797C19.2375 19.1785 18.9598 19.5138 18.6018 19.7619L16.3939 21.294C15.6815 21.7881 14.7597 21.8654 13.9749 21.4968C13.5943 21.3223 13.2143 21.1458 12.8358 20.9679C12.4033 20.7651 11.9722 20.5602 11.5418 20.3539C11.3458 20.2617 10.9204 20.0299 10.5824 19.5443C10.343 19.2011 10.1932 18.7956 10.157 18.3646L9.56254 14.3462C9.55828 14.2923 9.56822 14.2399 9.59024 14.1924C9.61225 14.1449 9.64705 14.1023 9.6925 14.0711L13.1739 11.9648C13.8862 11.4707 14.808 11.3934 15.5928 11.762L18.0259 12.9049C18.8106 13.2735 19.3383 14.0314 19.4115 14.8942L19.6366 17.5691C19.6728 17.9952 19.5947 18.4142 19.4207 18.7892C19.4193 18.7914 19.4186 18.7935 19.4171 18.7963L19.4157 18.797Z" fill="url(#paint21_radial_20_4287)"/>
<path d="M19.8444 18.3718L19.8472 18.3647C19.9878 17.9578 20.0212 17.5196 19.9417 17.0964L19.4211 14.3059C19.3408 13.877 19.1484 13.4757 18.865 13.1446C18.5809 12.8136 18.213 12.5619 17.8011 12.4165L15.1202 11.4715C14.7083 11.3262 14.2637 11.2921 13.8347 11.3715C13.4051 11.4517 13.0031 11.6438 12.6714 11.9267L12.67 11.9281L12.6679 11.9295L9.23127 14.5122C9.19932 14.5406 9.17446 14.5767 9.16026 14.6172C9.14605 14.6576 9.1425 14.7001 9.15031 14.7412L10.2014 18.9035V18.9056L10.2021 18.9078C10.2824 19.3367 10.4748 19.738 10.7582 20.069C11.1168 20.4873 11.5344 20.6958 11.822 20.7971C12.2943 20.968 12.7737 21.1396 13.2481 21.3062C13.6636 21.4522 14.0854 21.599 14.503 21.7415C14.9149 21.8868 15.3595 21.9208 15.7885 21.8414C16.2181 21.7613 16.6201 21.5692 16.9518 21.2863L19.1121 19.4409C19.4459 19.1559 19.6995 18.7858 19.8444 18.3718ZM19.9154 18.3966C19.7684 18.817 19.512 19.1984 19.1612 19.4983L17.0008 21.3437C16.3041 21.9386 15.3425 22.1179 14.4782 21.8131C14.0591 21.6699 13.6408 21.5245 13.2233 21.3778C12.7467 21.2105 12.2716 21.0403 11.7965 20.8687C11.5806 20.7929 11.1083 20.5937 10.7014 20.1187C10.413 19.7826 10.212 19.3721 10.1282 18.9227L9.07645 14.7582C9.0658 14.7022 9.07077 14.6455 9.08924 14.5938C9.1077 14.542 9.13966 14.4931 9.18369 14.4555L12.6224 11.8714C13.3191 11.2765 14.2807 11.0972 15.145 11.402L17.826 12.3471C18.6903 12.6519 19.3266 13.3935 19.4942 14.2932L20.0148 17.0836C20.0979 17.5281 20.0603 17.9776 19.9175 18.3902C19.9168 18.3931 19.9161 18.3952 19.9147 18.398L19.9154 18.3966Z" fill="url(#paint22_radial_20_4287)"/>
<path d="M20.3213 17.9037L20.3235 17.8959C20.4286 17.4528 20.4165 16.9885 20.2887 16.5518L19.445 13.6713C19.315 13.2289 19.07 12.8269 18.7362 12.5086C18.4024 12.1902 17.9891 11.9641 17.5402 11.8549L14.6199 11.1445C14.1711 11.0354 13.7002 11.046 13.2571 11.1757C12.8139 11.3055 12.4112 11.5501 12.0924 11.8833L12.0909 11.8854L12.0888 11.8868L8.74808 14.9672C8.71683 14.9998 8.69481 15.041 8.68487 15.0849C8.67493 15.1289 8.67564 15.1735 8.68771 15.2168L10.2352 19.484V19.4861L10.2366 19.4883C10.3666 19.9307 10.6116 20.3326 10.9454 20.651C11.3673 21.0529 11.8289 21.228 12.1421 21.3046C12.657 21.4344 13.1797 21.5641 13.696 21.6896C14.1484 21.7995 14.6079 21.9086 15.0617 22.015C15.5105 22.1242 15.9814 22.1135 16.4245 21.9838C16.8677 21.8541 17.2704 21.6095 17.5892 21.2763L19.6658 19.1068C19.9868 18.7715 20.2141 18.3553 20.3228 17.9045M20.398 17.9222C20.288 18.3795 20.0586 18.8084 19.7219 19.1607L17.6453 21.3301C16.9756 22.0299 15.9835 22.3198 15.0411 22.0908C14.5851 21.9845 14.1299 21.876 13.6754 21.7654C13.1562 21.6392 12.6385 21.5109 12.1208 21.3805C11.885 21.323 11.3673 21.1642 10.8886 20.7077C10.5498 20.3844 10.2949 19.9739 10.1585 19.5095L8.6103 15.2402C8.59326 15.1821 8.59254 15.1225 8.60604 15.0658C8.61953 15.0091 8.64865 14.9545 8.69055 14.9105L12.0334 11.8287C12.7031 11.1289 13.6953 10.839 14.6377 11.068L17.558 11.7783C18.4997 12.0073 19.2475 12.7205 19.5195 13.6493L20.3632 16.5298C20.4975 16.9885 20.506 17.4649 20.3995 17.9144C20.3995 17.9172 20.398 17.92 20.3973 17.9229L20.398 17.9222Z" fill="url(#paint23_radial_20_4287)"/>
<path d="M20.7715 17.3618L20.7729 17.3533C20.8361 16.8762 20.7743 16.3884 20.5932 15.9425L19.4001 13.0017C19.2169 12.5501 18.9164 12.1531 18.5315 11.8532C18.1466 11.5533 17.6878 11.3598 17.2042 11.2924L14.0566 10.8543C13.573 10.7869 13.0787 10.8479 12.6263 11.0308C12.1739 11.2137 11.7762 11.5136 11.4758 11.8979L11.4744 11.9L11.4729 11.9021L8.2856 15.4958C8.25648 15.5341 8.23802 15.5788 8.23092 15.6263C8.22382 15.6738 8.23092 15.7206 8.24796 15.7645L10.3288 20.0892L10.3302 20.0913V20.0934C10.5149 20.5451 10.8146 20.9421 11.2002 21.242C11.6867 21.6205 12.1909 21.7559 12.5283 21.8027C13.0836 21.885 13.6475 21.9658 14.2036 22.0431C14.6915 22.1104 15.1865 22.1771 15.6751 22.2409C16.1588 22.3082 16.6531 22.2473 17.1055 22.0643C17.5578 21.8814 17.9556 21.5815 18.256 21.1973L20.2104 18.6954C20.5122 18.3083 20.7075 17.8475 20.7736 17.3611M20.8545 17.3725C20.7871 17.8652 20.5918 18.3409 20.2743 18.7464L18.3199 21.2483C17.6899 22.0551 16.6765 22.4649 15.6616 22.3238C15.1709 22.26 14.6802 22.1941 14.1901 22.126C13.6312 22.0487 13.0723 21.9686 12.5141 21.8857C12.2605 21.8502 11.6988 21.7375 11.147 21.3079C10.7564 21.0037 10.4446 20.5989 10.2521 20.1253L8.16984 15.7979C8.1457 15.739 8.13859 15.6759 8.14712 15.615C8.15564 15.554 8.17978 15.4937 8.21956 15.4427L11.409 11.8476C12.039 11.0408 13.0524 10.631 14.0673 10.7721L17.2148 11.2102C18.2297 11.3513 19.0919 12.0227 19.4768 12.9705L20.6699 15.9113C20.8602 16.3792 20.9192 16.8804 20.8545 17.364C20.8545 17.3668 20.8538 17.3696 20.8531 17.3732L20.8545 17.3725Z" fill="url(#paint24_radial_20_4287)"/>
<path d="M21.1885 16.7426V16.7334C21.2048 16.225 21.0877 15.7181 20.8504 15.2686L19.2831 12.3017C19.0423 11.8458 18.6844 11.4601 18.2476 11.1858C17.8108 10.9114 17.3073 10.7554 16.7917 10.7363L13.4339 10.608C12.9183 10.5881 12.4042 10.7051 11.9475 10.9454C11.4908 11.1858 11.1045 11.5431 10.8297 11.9791L10.8282 11.9812L10.8268 11.9833L7.85468 16.1003C7.8284 16.1435 7.81278 16.1924 7.81135 16.2435C7.80993 16.2945 7.82059 16.3427 7.84402 16.3874L10.4916 20.717L10.493 20.7191L10.4945 20.7212C10.7352 21.1771 11.0931 21.5628 11.5299 21.8371C12.0817 22.1838 12.6264 22.2732 12.9865 22.2866C13.5795 22.3143 14.1811 22.3398 14.7748 22.3625C15.2953 22.3823 15.823 22.4001 16.3436 22.4149C16.8592 22.4348 17.3734 22.3178 17.83 22.0775C18.2867 21.8371 18.673 21.4798 18.9478 21.0438L20.7382 18.2052C21.0152 17.7663 21.1707 17.2601 21.1892 16.7419M21.2766 16.7461C21.2581 17.2715 21.1026 17.7925 20.8121 18.2534L19.0217 21.092C18.4443 22.0073 17.4216 22.5454 16.3393 22.5043C15.8166 22.4887 15.2932 22.4717 14.7705 22.4518C14.1739 22.4291 13.5781 22.4043 12.9815 22.376C12.711 22.3653 12.108 22.3065 11.4816 21.913C11.0385 21.6344 10.6677 21.2416 10.4149 20.7631L7.76519 16.4313C7.73394 16.3718 7.71903 16.3059 7.72187 16.2413C7.72471 16.1768 7.74389 16.1102 7.78011 16.0528L10.7537 11.933C11.3311 11.0177 12.3537 10.4796 13.4361 10.5208L16.7938 10.6491C17.8762 10.6902 18.8548 11.3056 19.3605 12.262L20.9279 15.2289C21.1771 15.7011 21.2929 16.2215 21.2766 16.7376C21.2766 16.7404 21.2766 16.744 21.2766 16.7468V16.7461Z" fill="url(#paint25_radial_20_4287)"/>
<path d="M21.5623 16.0479V16.0379C21.5246 15.5013 21.3478 14.9809 21.0502 14.5328L19.0866 11.5772C18.7847 11.1234 18.3671 10.7548 17.8785 10.5123C17.3899 10.2699 16.8438 10.1593 16.2991 10.1933L12.7531 10.4131C12.2084 10.4471 11.68 10.6236 11.2255 10.9249C10.7709 11.2262 10.4016 11.6431 10.1588 12.1309L10.1573 12.1337L10.1559 12.1365L7.46643 16.7816C7.44299 16.8299 7.43234 16.883 7.43589 16.9362C7.43944 16.9894 7.45648 17.0397 7.48489 17.0844L10.7298 21.3587L10.7312 21.3608L10.7326 21.3629C11.0344 21.8167 11.452 22.1853 11.9406 22.4278C12.5578 22.7341 13.1401 22.7702 13.5208 22.7468C14.1479 22.7135 14.7828 22.6766 15.4099 22.6376C15.9596 22.6029 16.5164 22.566 17.0661 22.527C17.6108 22.493 18.1392 22.3165 18.5937 22.0152C19.0482 21.7139 19.4175 21.297 19.6604 20.8092L21.2427 17.6338C21.487 17.1432 21.5978 16.5945 21.5616 16.0472M21.656 16.0422C21.6922 16.5973 21.5843 17.1616 21.3272 17.6763L19.7449 20.8518C19.235 21.8755 18.2166 22.5497 17.0732 22.6213C16.5214 22.6603 15.9695 22.6972 15.417 22.7319C14.7871 22.7716 14.1571 22.8078 13.5272 22.8411C13.2417 22.8588 12.6011 22.8603 11.9001 22.5122C11.4044 22.2661 10.9726 21.8918 10.6559 21.4154L7.4089 17.1382C7.36913 17.0787 7.34711 17.0113 7.34285 16.9426C7.33859 16.8731 7.35209 16.8022 7.38405 16.7377L10.075 12.0898C10.5849 11.066 11.6033 10.3918 12.7467 10.3202L16.2927 10.1004C17.4361 10.0295 18.5305 10.5726 19.1633 11.5254L21.1269 14.4811C21.4394 14.9518 21.6163 15.4871 21.6539 16.0316C21.6539 16.0351 21.6539 16.0379 21.6539 16.0415L21.656 16.0422Z" fill="url(#paint26_radial_20_4287)"/>
<path d="M21.8808 15.2783L21.8794 15.2684C21.7835 14.7076 21.542 14.1794 21.1812 13.7391L18.8021 10.8381C18.4364 10.3921 17.9584 10.049 17.4187 9.84554C16.8789 9.64207 16.293 9.58394 15.7234 9.67681L12.0169 10.283C11.4474 10.3758 10.9105 10.6183 10.4645 10.9827C10.0178 11.3478 9.67403 11.825 9.4702 12.3638L9.46878 12.3666L9.46736 12.3694L7.13155 17.5406C7.11237 17.5938 7.10669 17.6512 7.11592 17.7065C7.12515 17.7618 7.14859 17.8135 7.18339 17.8568L11.0504 22.0099L11.0525 22.012L11.0546 22.0141C11.4204 22.46 11.8983 22.8032 12.4381 23.0066C13.1199 23.264 13.7363 23.2406 14.134 23.1754C14.7895 23.074 15.4543 22.9684 16.1091 22.8606C16.6836 22.7663 17.2653 22.6685 17.8391 22.5692C18.4087 22.4763 18.9456 22.2339 19.3916 21.8695C19.8383 21.5044 20.182 21.0272 20.3858 20.4884L21.7132 16.9812C21.9184 16.4389 21.9759 15.8497 21.8801 15.2783M21.9781 15.262C22.0754 15.8419 22.0214 16.4467 21.8055 17.0159L20.4782 20.5232C20.0499 21.654 19.0507 22.4714 17.8554 22.6671C17.2795 22.7663 16.7021 22.8634 16.1254 22.9584C15.467 23.0662 14.808 23.1718 14.1489 23.2732C13.8499 23.3221 13.1767 23.3909 12.4026 23.0995C11.855 22.8932 11.3607 22.5451 10.9772 22.0772L7.10811 17.9213C7.06053 17.8632 7.02999 17.7944 7.01792 17.7228C7.00584 17.6512 7.01223 17.5739 7.03922 17.503L9.37646 12.329C9.8047 11.1982 10.8039 10.3808 11.9992 10.1851L15.7057 9.57897C16.9009 9.3833 18.1097 9.83916 18.8767 10.775L21.2558 13.676C21.6343 14.1383 21.8772 14.6821 21.9745 15.2514C21.9745 15.2549 21.9759 15.2584 21.9759 15.262H21.9781Z" fill="url(#paint27_radial_20_4287)"/>
<path d="M22.1364 14.4335L22.1336 14.4229C21.9731 13.8437 21.6634 13.3127 21.2373 12.888L18.4264 10.0876C17.9946 9.6573 17.4548 9.34748 16.8654 9.19009C16.2759 9.03341 15.6531 9.03341 15.0643 9.19222L11.23 10.2223C10.6413 10.3804 10.1022 10.6917 9.67115 11.1227C9.24007 11.5538 8.92972 12.0926 8.77205 12.681V12.6838L8.76992 12.6867L6.86093 18.3732C6.84602 18.4314 6.84673 18.4923 6.86235 18.5498C6.87798 18.6072 6.9078 18.6589 6.94971 18.7008L11.458 22.661L11.4601 22.6631L11.4623 22.6653C11.894 23.0956 12.4338 23.4054 13.0233 23.5628C13.7675 23.7613 14.4138 23.6713 14.825 23.5607C15.5039 23.3849 16.1921 23.2027 16.8696 23.0205C17.4641 22.8602 18.0656 22.6957 18.6586 22.5313C19.2474 22.3732 19.7864 22.0619 20.2175 21.6309C20.6486 21.1998 20.9589 20.661 21.1166 20.0726L22.1407 16.2428C22.299 15.6508 22.2976 15.0248 22.1357 14.4335M22.2365 14.4066C22.4006 15.0064 22.4077 15.6487 22.2415 16.2698L21.2174 20.0995C20.8872 21.3345 19.922 22.3002 18.6856 22.6319C18.0897 22.7978 17.4932 22.9609 16.8966 23.1211C16.2156 23.3047 15.5338 23.4848 14.8513 23.6614C14.5423 23.7443 13.8414 23.8882 12.9963 23.6635C12.3983 23.504 11.8415 23.1906 11.3884 22.739L6.87727 18.7766C6.82116 18.7206 6.78139 18.6511 6.76151 18.5774C6.74162 18.5037 6.7402 18.4214 6.76151 18.3442L8.67121 12.6548C9.00144 11.4198 9.96659 10.4542 11.203 10.1224L15.0374 9.09226C16.2738 8.76046 17.594 9.11211 18.5002 10.0146L21.3112 12.815C21.7586 13.2609 22.0718 13.8075 22.2344 14.396C22.2351 14.3995 22.2365 14.4031 22.2373 14.4066H22.2365Z" fill="url(#paint28_radial_20_4287)"/>
<path d="M22.3123 13.5191L22.308 13.5084C22.0779 12.9157 21.6958 12.3904 21.2023 11.9884L17.9482 9.33975C17.4482 8.93281 16.8474 8.6634 16.211 8.5606C15.5747 8.4578 14.9192 8.52445 14.3163 8.75273L10.3917 10.2415C9.7888 10.4705 9.25473 10.8548 8.84708 11.3539C8.43944 11.853 8.16956 12.4528 8.06658 13.088V13.0916L8.06517 13.0951L6.66041 19.2786C6.65118 19.341 6.65757 19.4048 6.68029 19.4644C6.70302 19.5225 6.73995 19.5743 6.78753 19.614L11.9506 23.3027L11.9535 23.3048L11.9563 23.3069C12.4563 23.7139 13.0571 23.9833 13.6934 24.0861C14.4974 24.2158 15.1678 24.0535 15.5889 23.8932C16.2849 23.6366 16.9887 23.3722 17.6826 23.1091C18.2905 22.878 18.9062 22.6412 19.5127 22.4051C20.1157 22.1761 20.6497 21.7919 21.0574 21.2928C21.465 20.7937 21.7349 20.1939 21.8379 19.5587L22.5083 15.4212C22.612 14.7817 22.5438 14.1238 22.3116 13.5191M22.4153 13.4801C22.6511 14.0933 22.727 14.7682 22.6184 15.4396L21.948 19.5771C21.7321 20.9114 20.8188 22.0287 19.5532 22.5086C18.9439 22.7461 18.3338 22.9808 17.723 23.2126C17.0263 23.4778 16.3282 23.7394 15.6287 23.9975C15.3127 24.1173 14.5904 24.3427 13.6771 24.1953C13.0315 24.091 12.4122 23.8202 11.8881 23.3927L6.72219 19.7019C6.65686 19.6487 6.60785 19.5799 6.57874 19.5041C6.54891 19.4275 6.53968 19.3424 6.55317 19.2588L7.95864 13.0717C8.17453 11.7374 9.08784 10.6201 10.3534 10.1402L14.2779 8.65135C15.5435 8.17139 16.9695 8.4018 18.0185 9.25538L21.2726 11.9041C21.791 12.3259 22.1781 12.8682 22.4117 13.4694C22.4131 13.473 22.4146 13.4765 22.416 13.4808L22.4153 13.4801Z" fill="url(#paint29_radial_20_4287)"/>
<path d="M22.402 12.5388L22.3963 12.5281C22.0916 11.9291 21.6336 11.4165 21.0718 11.0464L17.3682 8.60477C16.7993 8.22973 16.1388 8.00995 15.4585 7.96883C14.7781 7.92772 14.0956 8.06738 13.4863 8.37152L9.51559 10.3524C8.90554 10.6565 8.38497 11.118 8.00928 11.6859C7.63359 12.2538 7.41343 12.9131 7.37224 13.5923V13.5958V13.5994L6.55126 20.253C6.54771 20.3196 6.56191 20.3862 6.59174 20.4458C6.62157 20.5053 6.66631 20.555 6.721 20.5918L12.5431 23.9261L12.546 23.9282L12.5488 23.9303C13.1177 24.3054 13.7782 24.5251 14.4585 24.5663C15.3186 24.618 16.006 24.3755 16.4321 24.1629C17.1366 23.819 17.8497 23.4667 18.5513 23.1164C19.1664 22.8087 19.7885 22.4947 20.4021 22.182C21.0122 21.8779 21.5327 21.4164 21.9084 20.8485C22.2841 20.2806 22.5043 19.6213 22.5455 18.9421L22.8118 14.5189C22.853 13.8348 22.7116 13.1499 22.4027 12.5388M22.5064 12.4863C22.8196 13.1067 22.9709 13.8085 22.9275 14.526L22.6612 18.9492C22.5753 20.3756 21.7337 21.6475 20.4532 22.2862C19.8375 22.6003 19.2211 22.9115 18.6025 23.2207C17.8973 23.573 17.1906 23.9218 16.4826 24.2678C16.1623 24.4273 15.4265 24.7414 14.4507 24.6825C13.7604 24.6414 13.0807 24.4216 12.4835 24.0274L6.65779 20.6911C6.58322 20.6422 6.52498 20.5755 6.48592 20.4983C6.44686 20.421 6.42769 20.3324 6.43337 20.2423L7.25506 13.5852C7.34099 12.1588 8.18257 10.8869 9.46304 10.2481L13.4337 8.26731C14.7142 7.62853 16.2383 7.71999 17.4328 8.50764L21.1364 10.9493C21.7259 11.3378 22.1911 11.8674 22.5007 12.4757C22.5028 12.4792 22.5043 12.4835 22.5064 12.487V12.4863Z" fill="url(#paint30_radial_20_4287)"/>
<path d="M22.3912 11.4972L22.3841 11.4865C21.9999 10.8889 21.4637 10.3983 20.8338 10.0679L16.6785 7.89068C16.04 7.55605 15.322 7.39512 14.6019 7.42419C13.8817 7.45325 13.1787 7.67161 12.5693 8.05658L8.6029 10.5606C7.99356 10.9456 7.4943 11.4851 7.1598 12.1225C6.82458 12.7598 6.66337 13.4766 6.69249 14.1954V14.199V14.2025L6.53483 21.2879C6.53838 21.3581 6.56039 21.4268 6.59803 21.4864C6.63568 21.5459 6.68752 21.5934 6.74931 21.6267L13.2277 24.5186L13.2312 24.52L13.2348 24.5221C13.8732 24.8568 14.5912 25.0177 15.3114 24.9886C16.2211 24.9518 16.9185 24.6249 17.3446 24.3555C18.0491 23.9195 18.7622 23.4736 19.4624 23.0305C20.0767 22.642 20.6981 22.2457 21.3096 21.8522C21.919 21.4672 22.4182 20.9277 22.7527 20.2904C23.0879 19.653 23.2492 18.9363 23.22 18.2174L23.0311 13.5361C23.002 12.8123 22.7804 12.1069 22.3905 11.4957M22.4956 11.4312C22.8912 12.0508 23.1249 12.7733 23.1554 13.5326L23.3443 18.2138C23.4054 19.7232 22.6547 21.1503 21.3764 21.9578C20.7621 22.3534 20.1463 22.7462 19.5292 23.1361C18.8247 23.5813 18.1187 24.023 17.41 24.4619C17.0904 24.6639 16.3497 25.0716 15.317 25.1127C14.5863 25.1418 13.8484 24.983 13.1779 24.632L6.69533 21.7381C6.61153 21.6941 6.54335 21.6303 6.49434 21.5537C6.44534 21.4772 6.41552 21.3857 6.41196 21.29L6.56963 14.2004C6.50855 12.691 7.25922 11.2639 8.53756 10.4564L12.504 7.95236C13.783 7.14486 15.3959 7.08034 16.736 7.78221L20.8913 9.95942C21.5532 10.3061 22.0986 10.8137 22.4885 11.4206C22.4907 11.4241 22.4935 11.4284 22.4956 11.4319V11.4312Z" fill="url(#paint31_radial_20_4287)"/>
<path d="M22.271 10.4029L22.2625 10.3923C21.7952 9.80381 21.1788 9.34441 20.4814 9.06366L15.8793 7.21328C15.1727 6.92899 14.4 6.83541 13.6451 6.94175C12.8901 7.04809 12.1743 7.35295 11.5741 7.82157L7.66739 10.8751C7.06728 11.3444 6.59998 11.9647 6.31519 12.6708C6.0304 13.3763 5.93666 14.1476 6.04319 14.9012V14.9055L6.0439 14.9097L6.6298 22.38C6.64117 22.4538 6.671 22.5239 6.71787 22.5821C6.76474 22.6402 6.82369 22.6856 6.89186 22.7132L14.0137 25.0705L14.0172 25.0719L14.0208 25.0734C14.7274 25.3577 15.5001 25.4512 16.255 25.3449C17.2081 25.2102 17.9069 24.7919 18.3266 24.4644C19.0219 23.9312 19.7236 23.3867 20.4139 22.8465C21.019 22.3729 21.6304 21.8901 22.232 21.4116C22.8321 20.9423 23.2994 20.3219 23.5842 19.6158C23.869 18.9104 23.9627 18.139 23.8562 17.3854L23.1609 12.4816C23.0537 11.7237 22.7454 11.0048 22.2703 10.4036M22.3733 10.3228C22.8548 10.9325 23.1772 11.6677 23.2902 12.4631L23.9854 17.367C24.2098 18.948 23.5721 20.5289 22.3122 21.5137C21.7078 21.9944 21.1021 22.4729 20.4941 22.9486C19.8003 23.4917 19.1043 24.0312 18.4062 24.5672C18.0916 24.8132 17.3551 25.3208 16.2735 25.4732C15.5079 25.5817 14.7146 25.4916 13.9725 25.1939L6.84641 22.8352C6.75409 22.7983 6.67526 22.7381 6.6156 22.6622C6.55594 22.5863 6.51475 22.4935 6.50055 22.3942L5.91464 14.9197C5.69022 13.3387 6.32797 11.7577 7.58785 10.773L11.4946 7.71948C12.7545 6.73473 14.4447 6.49582 15.9283 7.09276L20.5304 8.94314C21.2633 9.23807 21.8904 9.71449 22.3655 10.3114C22.3683 10.315 22.3712 10.3185 22.374 10.3228H22.3733Z" fill="url(#paint32_radial_20_4287)"/>
<path d="M22.027 9.26456L22.017 9.25393C21.4624 8.68463 20.7657 8.26635 20.0022 8.04515L14.9648 6.58541C14.1907 6.36138 13.3683 6.34436 12.5857 6.53578C11.8031 6.72791 11.0822 7.12351 10.5006 7.68075L6.71527 11.3057C6.13363 11.8622 5.70751 12.5648 5.48309 13.3375C5.25867 14.1103 5.24163 14.9313 5.43338 15.7125V15.7168L5.43551 15.721L6.84453 23.5175C6.86441 23.594 6.90347 23.6642 6.95816 23.7209C7.01284 23.7776 7.08031 23.8181 7.15488 23.8407L14.8967 25.5671H14.9009L14.9052 25.5692C15.6793 25.7932 16.5017 25.8102 17.2843 25.6188C18.2729 25.3763 18.9639 24.8624 19.3702 24.4731C20.0448 23.8386 20.7259 23.192 21.3942 22.5504C21.9808 21.9882 22.5724 21.4161 23.1548 20.8482C23.7364 20.2917 24.1625 19.5891 24.3869 18.8164C24.6114 18.0436 24.6284 17.2226 24.4366 16.4413L23.1846 11.356C22.9907 10.5698 22.5909 9.84662 22.0277 9.26385M22.1264 9.16885C22.6981 9.75941 23.115 10.4989 23.3181 11.3234L24.5702 16.4087C24.9743 18.0486 24.4707 19.7784 23.2499 20.9475C22.6654 21.5168 22.0788 22.0847 21.4894 22.649C20.8175 23.2934 20.1421 23.9343 19.4646 24.5724C19.1592 24.8645 18.4391 25.4763 17.317 25.7514C16.523 25.9463 15.6793 25.9357 14.8668 25.7003L7.12008 23.9726C7.01924 23.9435 6.92904 23.8882 6.85873 23.8152C6.787 23.7415 6.73516 23.6486 6.70959 23.5451L5.29986 15.7444C4.89648 14.1046 5.39929 12.3748 6.62011 11.2057L10.4054 7.58079C11.6262 6.41171 13.3783 5.98208 15.0032 6.45283L20.0406 7.91258C20.8424 8.14512 21.5533 8.57971 22.1157 9.15751C22.1193 9.16105 22.1228 9.1646 22.1264 9.16814V9.16885Z" fill="url(#paint33_radial_20_4287)"/>
<path d="M21.6508 8.09245L21.6395 8.08253C20.996 7.5423 20.2184 7.17577 19.3917 7.02405L13.9374 6.02088C13.0994 5.86703 12.2323 5.9358 11.4298 6.2208C10.6272 6.5058 9.91066 6.99782 9.35813 7.6451L5.76102 11.8584C5.20849 12.5057 4.83493 13.2898 4.68011 14.1264C4.526 14.963 4.59489 15.8286 4.88039 16.6297L4.88181 16.634L4.88323 16.6382L7.19276 24.6906C7.22117 24.7686 7.27017 24.8388 7.33409 24.8926C7.39801 24.9465 7.47329 24.982 7.55425 24.9976L15.8812 25.9951H15.8855L15.8898 25.9965C16.7278 26.1503 17.5949 26.0816 18.3974 25.7966C19.4116 25.4371 20.0841 24.8232 20.4698 24.3708C21.1118 23.6321 21.7595 22.8792 22.3951 22.1348C22.9519 21.4818 23.5144 20.8168 24.0662 20.1582C24.6187 19.5109 24.9923 18.7268 25.1471 17.8903C25.3012 17.0537 25.2323 16.188 24.9468 15.3869L23.0904 10.1704C22.8035 9.36361 22.3056 8.64544 21.6515 8.09174M21.7446 7.98114C22.4086 8.54193 22.9256 9.2757 23.2267 10.1215L25.0832 15.3387C25.6819 17.0211 25.336 18.8941 24.1763 20.2525C23.6216 20.9133 23.0648 21.5726 22.5052 22.2291C21.8667 22.9777 21.2247 23.7236 20.5791 24.4666C20.2894 24.8061 19.5962 25.5257 18.445 25.9341C17.6304 26.2226 16.7413 26.3013 15.8621 26.1397L7.53011 25.1415C7.42074 25.1216 7.3206 25.0727 7.23822 25.0032C7.15512 24.933 7.0905 24.8409 7.05215 24.7352L4.74119 16.6786C4.1425 14.9963 4.48836 13.1232 5.6481 11.7649L9.24521 7.55152C10.405 6.19315 12.2032 5.55509 13.9616 5.87837L19.4158 6.88155C20.2844 7.04107 21.0777 7.42319 21.7311 7.97193C21.7353 7.97547 21.7389 7.97902 21.7431 7.98185L21.7446 7.98114Z" fill="url(#paint34_radial_20_4287)"/>
<path d="M21.1294 6.89958L21.1159 6.89036C20.3815 6.38984 19.525 6.08711 18.6387 6.0148L12.7946 5.53625C11.8969 5.46252 10.9921 5.627 10.1782 6.01126C9.36434 6.39551 8.66268 6.98962 8.14992 7.72906L4.81274 12.5422C4.29998 13.2816 3.99034 14.1458 3.91648 15.042C3.84262 15.9381 4.00738 16.8413 4.3923 17.6538L4.39443 17.658L4.39656 17.6623L7.68048 25.8883C7.71883 25.9677 7.77778 26.0358 7.85022 26.0861C7.92266 26.1365 8.00575 26.1655 8.09239 26.1733L16.9577 26.3421H16.9627H16.9676C17.8653 26.4158 18.7701 26.2513 19.584 25.8671C20.6123 25.3814 21.2543 24.6647 21.613 24.1485C22.2103 23.3035 22.8118 22.4435 23.4005 21.5927C23.9176 20.8469 24.4381 20.0883 24.9488 19.3368C25.4615 18.5974 25.7712 17.7332 25.845 16.8371C25.9189 15.9409 25.7541 15.0377 25.3692 14.2252L22.8622 8.93358C22.4745 8.11544 21.8751 7.41216 21.1279 6.89958M21.2167 6.77339C21.9745 7.29305 22.5966 8.00981 23.0028 8.86836L25.5098 14.16C26.318 15.8665 26.1532 17.8735 25.0773 19.4255C24.5645 20.1798 24.0482 20.9313 23.5291 21.6814C22.9368 22.5364 22.3409 23.3892 21.7401 24.2386C21.471 24.6264 20.8183 25.4566 19.6514 26.0074C18.8255 26.3974 17.8987 26.5739 16.9563 26.4966L8.08529 26.3279C7.96811 26.3179 7.85732 26.2782 7.76358 26.2137C7.66983 26.1492 7.59029 26.0585 7.53987 25.9514L4.25382 17.7204C3.44562 16.0139 3.61038 14.0069 4.68632 12.455L8.02351 7.64186C9.09944 6.08995 10.9232 5.22928 12.8073 5.38312L18.6515 5.86167C19.5818 5.93752 20.4575 6.25585 21.2025 6.76417C21.2068 6.76701 21.2117 6.77055 21.216 6.77339H21.2167Z" fill="url(#paint35_radial_20_4287)"/>
<path d="M20.4557 5.6998L20.4408 5.69129C19.6156 5.24252 18.6824 5.01424 17.7421 5.03196L11.5435 5.14681C10.5912 5.16453 9.65728 5.43323 8.84127 5.92312C8.02526 6.41372 7.35058 7.11275 6.89038 7.94436L3.89054 13.3601C3.42962 14.1917 3.19526 15.1339 3.21301 16.0846C3.23077 17.0353 3.49993 17.9676 3.99067 18.7822L3.99352 18.7865L3.99565 18.7907L8.32283 27.0969C8.37184 27.1763 8.44073 27.2422 8.5224 27.2869C8.60407 27.3315 8.69426 27.3542 8.78659 27.3528L18.1306 26.5928H18.1355H18.1405C19.0929 26.5751 20.0268 26.3064 20.8428 25.8165C21.8733 25.1969 22.4727 24.3752 22.7944 23.7938C23.3327 22.8417 23.8746 21.8733 24.4037 20.9162C24.8681 20.0768 25.3354 19.2239 25.7935 18.3795C26.2544 17.5479 26.4888 16.6057 26.471 15.655C26.4533 14.7043 26.1841 13.772 25.6934 12.9574L22.4947 7.65652C22.0004 6.83697 21.2945 6.16062 20.4543 5.70051M20.5338 5.5573C21.3861 6.02379 22.1161 6.71219 22.6353 7.57216L25.834 12.873C26.8652 14.5823 26.905 16.7113 25.9377 18.4575C25.4782 19.3047 25.0151 20.1505 24.5485 20.9942C24.0166 21.9562 23.4797 22.9161 22.9385 23.8732C22.6971 24.3099 22.0984 25.2522 20.9287 25.9554C20.1013 26.4531 19.1447 26.7367 18.1455 26.7551L8.79582 27.5159C8.67154 27.518 8.5508 27.4875 8.4457 27.4294C8.33917 27.3705 8.24755 27.2847 8.18222 27.177L3.85219 18.8659C2.82099 17.1566 2.78122 15.0276 3.7485 13.2814L6.74834 7.86566C7.71562 6.1195 9.54223 5.02062 11.5414 4.98375L17.74 4.8689C18.7271 4.85047 19.6816 5.09293 20.5196 5.54808C20.5246 5.55092 20.5296 5.55375 20.5353 5.55659L20.5338 5.5573Z" fill="url(#paint36_radial_20_4287)"/>
<path d="M19.6182 4.50938L19.6019 4.50229C18.6858 4.11732 17.6801 3.97624 16.693 4.09393L10.1848 4.87024C9.18483 4.98934 8.23105 5.37076 7.42498 5.97267C6.61892 6.57457 5.9833 7.38137 5.58701 8.30514L3.00618 14.3192C2.60989 15.243 2.46359 16.2589 2.58291 17.2564C2.70222 18.2547 3.0843 19.2068 3.68725 20.0115L3.6908 20.0157L3.69364 20.02L9.12731 28.2999C9.18696 28.3786 9.2665 28.4403 9.35741 28.4785C9.44831 28.5168 9.54561 28.531 9.6422 28.5204L19.391 26.7324H19.3959L19.4016 26.731C20.4016 26.6119 21.3554 26.2304 22.1614 25.6285C23.1798 24.8678 23.7231 23.9398 24.0001 23.2946C24.4653 22.2362 24.9326 21.16 25.3878 20.0972C25.7869 19.165 26.1882 18.2185 26.5802 17.282C26.9765 16.3582 27.1228 15.3423 27.0035 14.3448C26.8842 13.3465 26.5021 12.3944 25.8992 11.5897L21.9718 6.35125C21.3646 5.54162 20.5507 4.90427 19.6182 4.50938ZM19.6857 4.35128C20.6317 4.75184 21.4733 5.39912 22.1103 6.24845L26.0376 11.4869C27.3039 13.1757 27.5717 15.411 26.7393 17.35C26.3459 18.2901 25.9482 19.2288 25.5469 20.1653C25.0888 21.2337 24.6265 22.3 24.1585 23.3641C23.9504 23.8491 23.4213 24.9033 22.2651 25.7668C21.4477 26.3779 20.4712 26.7771 19.4222 26.9025L9.66776 28.6912C9.53709 28.7068 9.40712 28.687 9.28994 28.6374C9.17276 28.5877 9.06623 28.5062 8.98598 28.3999L3.54947 20.115C2.28321 18.4262 2.01546 16.1909 2.84781 14.2519L5.42864 8.23779C6.26098 6.29879 8.06628 4.94964 10.1649 4.69938L16.6731 3.92307C17.7092 3.79971 18.739 3.95285 19.6687 4.34348C19.6743 4.34561 19.68 4.34844 19.6857 4.35057V4.35128Z" fill="url(#paint37_radial_20_4287)"/>
<path d="M18.613 3.34556L18.5946 3.33989C17.5904 3.0322 16.5173 2.98967 15.4917 3.21795L8.72789 4.72236C7.68888 4.95348 6.72515 5.45542 5.94181 6.17431C5.15776 6.89319 4.5747 7.80846 4.25582 8.82227L2.17923 15.422C1.86035 16.4358 1.81419 17.5198 2.04571 18.557C2.27723 19.5942 2.78005 20.5562 3.50018 21.3382L3.50373 21.3425L3.50728 21.3467L10.1014 29.482C10.1724 29.5579 10.2626 29.6146 10.3627 29.6458C10.4629 29.677 10.5666 29.6812 10.6667 29.6593L20.7315 26.7476L20.7372 26.7462L20.7429 26.7447C21.7819 26.5136 22.7456 26.0117 23.529 25.2928C24.5197 24.3846 24.9927 23.3517 25.2157 22.6434C25.5928 21.4807 25.9699 20.2996 26.3363 19.1334C26.6574 18.1103 26.9791 17.0724 27.2923 16.0458C27.6111 15.032 27.6573 13.948 27.4258 12.9108C27.1943 11.8736 26.6914 10.9116 25.9713 10.1296L21.2841 5.0343C20.5597 4.24665 19.6357 3.66247 18.6123 3.34556M18.667 3.17187C19.7046 3.49374 20.6584 4.08501 21.419 4.91165L26.1062 10.0069C27.6175 11.6496 28.136 13.9728 27.4663 16.1004C27.1516 17.1305 26.8335 18.16 26.5103 19.1879C26.1425 20.3606 25.7682 21.5311 25.3897 22.7001C25.2221 23.2318 24.7775 24.3974 23.6532 25.4275C22.8578 26.1563 21.8735 26.6802 20.7834 26.9227L10.7122 29.8358C10.5765 29.8663 10.4373 29.8592 10.3095 29.8195C10.1795 29.7791 10.0602 29.7053 9.96433 29.6011L3.36595 21.4609C1.85467 19.8182 1.33623 17.495 2.00594 15.3674L4.08254 8.76768C4.75224 6.63938 6.50784 5.03005 8.68883 4.54512L15.4527 3.04071C16.5293 2.80108 17.6294 2.85355 18.6485 3.1662C18.6549 3.16832 18.6613 3.16974 18.667 3.17187Z" fill="url(#paint38_radial_20_4287)"/>
<path d="M17.43 2.22748L17.4101 2.22323C16.3206 2.00558 15.1879 2.07435 14.1325 2.42315L7.17766 4.72089C6.10953 5.07395 5.14935 5.7035 4.40081 6.54291C3.65227 7.38161 3.13596 8.40676 2.90799 9.50707L1.4237 16.669C1.19572 17.7693 1.26177 18.9142 1.61545 19.9805C1.96912 21.0468 2.59977 22.0053 3.44064 22.7525L3.4449 22.7568L3.44916 22.761L11.2492 30.622C11.3323 30.6943 11.4331 30.7446 11.5411 30.7666C11.6476 30.7886 11.7591 30.7822 11.8628 30.7489L22.1414 26.622L22.147 26.6199L22.1527 26.6178C23.2208 26.2647 24.181 25.6352 24.9296 24.7957C25.8748 23.7359 26.2633 22.5987 26.4224 21.8302C26.6958 20.5668 26.9671 19.285 27.2285 18.0188C27.4578 16.9086 27.6858 15.7828 27.906 14.6697C28.1339 13.5694 28.0679 12.4244 27.7142 11.3582C27.3605 10.2919 26.7299 9.33337 25.889 8.58613L20.4199 3.72126C19.574 2.96905 18.54 2.45293 17.43 2.22748ZM17.4683 2.0389C18.594 2.26789 19.66 2.78898 20.5477 3.57805L26.0183 8.44221C27.7824 10.0104 28.5743 12.3996 28.0956 14.7087C27.874 15.826 27.6482 16.9419 27.4181 18.0578C27.1553 19.3304 26.8861 20.6008 26.6113 21.8706C26.492 22.4477 26.1468 23.7203 25.0737 24.9234C24.3145 25.7741 23.3345 26.4292 22.2131 26.8L11.9281 30.9297C11.7882 30.9757 11.6419 30.9835 11.5027 30.9552C11.3614 30.9268 11.2279 30.8609 11.1164 30.7623L3.31138 22.8972C1.54727 21.3289 0.755409 18.9398 1.23408 16.6307L2.71837 9.46878C3.19704 7.1597 4.87309 5.28026 7.11587 4.53939L14.0708 2.24166C15.1779 1.87584 16.3405 1.81487 17.4463 2.03606C17.4534 2.03748 17.4598 2.0389 17.4669 2.04032L17.4683 2.0389Z" fill="url(#paint39_radial_20_4287)"/>
<path d="M16.0676 1.17637L16.0463 1.17424C14.8773 1.0601 13.6927 1.25293 12.6203 1.73077L5.54752 4.88351C4.46093 5.36773 3.5178 6.13199 2.81968 7.09333C2.12156 8.05468 1.68693 9.1876 1.56407 10.3687L0.762972 18.0595C0.640108 19.2406 0.83115 20.4388 1.31621 21.5228C1.80127 22.6075 2.56685 23.549 3.52987 24.2459L3.53484 24.2494L3.53982 24.2537L12.5791 31.6977C12.6743 31.7651 12.7858 31.8069 12.9015 31.819C13.0159 31.8303 13.1324 31.8126 13.2382 31.7665L23.6133 26.338L23.619 26.3352L23.6247 26.3323C24.7113 25.8481 25.6544 25.0839 26.3525 24.1225C27.2346 22.9074 27.5222 21.6709 27.6082 20.845C27.7616 19.4873 27.9107 18.1098 28.052 16.7508C28.1756 15.559 28.2956 14.3502 28.4093 13.1563C28.5321 11.9752 28.3411 10.7771 27.856 9.69308C27.371 8.60838 26.6054 7.66688 25.6424 6.96997L19.3707 2.43193C18.4013 1.73006 17.2586 1.29618 16.0676 1.17637ZM16.0875 0.974314C17.2962 1.09555 18.4723 1.53156 19.49 2.26745L25.7617 6.8055C27.7836 8.26879 28.8702 10.6984 28.6117 13.1776C28.4973 14.3765 28.378 15.5746 28.2544 16.772C28.1131 18.1382 27.9647 19.5036 27.8106 20.8684C27.7459 21.488 27.5187 22.8634 26.5173 24.2423C25.8092 25.2179 24.8477 26.0105 23.7078 26.5188L13.3269 31.9501C13.1849 32.0132 13.0315 32.0366 12.8817 32.0217C12.7304 32.0068 12.5827 31.9522 12.4548 31.8594L3.40985 24.4111C1.38794 22.9478 0.301346 20.5189 0.559856 18.0389L1.36095 10.3482C1.61946 7.86822 3.1833 5.71441 5.46372 4.69776L12.5365 1.54503C13.6629 1.04308 14.8787 0.855918 16.0654 0.971478C16.0725 0.971478 16.0796 0.972896 16.0875 0.973605V0.974314Z" fill="url(#paint40_radial_20_4287)"/>
<path d="M14.5235 0.214814H14.5008C13.2594 0.219068 12.0329 0.546607 10.9555 1.16269L3.85008 5.22715C2.75852 5.85174 1.84734 6.75495 1.21527 7.84037C0.582495 8.92578 0.246576 10.1629 0.242315 11.4192L0.215328 19.5942C0.211065 20.8498 0.539885 22.0897 1.16485 23.1787C1.79053 24.2684 2.69531 25.1779 3.78261 25.8089L3.78829 25.8125L3.79397 25.816L14.0924 32.6908C14.1997 32.7517 14.3211 32.7836 14.4447 32.7836C14.5683 32.7836 14.6869 32.7525 14.7927 32.6929L25.1302 25.8855L25.1359 25.8819L25.1416 25.8784C26.2331 25.2538 27.1443 24.3506 27.7764 23.2652C28.5754 21.8941 28.7465 20.5619 28.7494 19.6849C28.7671 18.2408 28.7778 16.7761 28.7813 15.3312C28.7849 14.0643 28.7827 12.7804 28.7756 11.5121C28.7799 10.2565 28.4511 9.01653 27.8261 7.92757C27.2004 6.8379 26.2956 5.92831 25.2083 5.29734L18.1299 1.1868C17.0355 0.55157 15.7877 0.215523 14.5214 0.215523M14.5235 0C15.8076 0 17.0916 0.333919 18.24 1.00034L25.3184 5.11088C27.601 6.43663 29.0015 8.87687 28.9929 11.5128C29 12.7861 29.0015 14.0586 28.9986 15.3319C28.9944 16.7839 28.9837 18.2358 28.9667 19.6878C28.9645 20.3471 28.8715 21.8175 27.9646 23.3736C27.3233 24.4747 26.3958 25.4105 25.2502 26.0656L14.9063 32.8772C14.7636 32.9588 14.6045 32.9999 14.4454 32.9999C14.2863 32.9999 14.1237 32.9581 13.9795 32.8744L3.67466 25.9954C1.39211 24.6696 -0.0083828 22.2294 0.000139236 19.5935L0.0271282 11.4185C0.0356503 8.78257 1.45248 6.35156 3.74355 5.04069L10.849 0.976236C11.9803 0.329666 13.2402 0.00425375 14.5001 0C14.5079 0 14.5157 0 14.5235 0Z" fill="url(#paint41_radial_20_4287)"/>
<defs>
<linearGradient id="paint0_linear_20_4287" x1="9.10517" y1="14.815" x2="18.9697" y2="19.4644" gradientUnits="userSpaceOnUse">
<stop/>
<stop offset="0.96" stop-color="#FF0000"/>
<stop offset="1" stop-color="#333333"/>
</linearGradient>
<linearGradient id="paint1_linear_20_4287" x1="8.32524" y1="15.6321" x2="19.2308" y2="19.4893" gradientUnits="userSpaceOnUse">
<stop/>
<stop offset="0.96" stop-color="#313131"/>
<stop offset="1" stop-color="#333333"/>
</linearGradient>
<linearGradient id="paint2_linear_20_4287" x1="7.88592" y1="16.0978" x2="19.7667" y2="18.9984" gradientUnits="userSpaceOnUse">
<stop/>
<stop offset="0.96" stop-color="#313131"/>
<stop offset="1" stop-color="#333333"/>
</linearGradient>
<linearGradient id="paint3_linear_20_4287" x1="7.72235" y1="16.2517" x2="20.4898" y2="18.0371" gradientUnits="userSpaceOnUse">
<stop/>
<stop offset="0.96" stop-color="#313131"/>
<stop offset="1" stop-color="#333333"/>
</linearGradient>
<linearGradient id="paint4_linear_20_4287" x1="7.77502" y1="16.1345" x2="21.3182" y2="16.655" gradientUnits="userSpaceOnUse">
<stop/>
<stop offset="0.96" stop-color="#313131"/>
<stop offset="1" stop-color="#333333"/>
</linearGradient>
<linearGradient id="paint5_linear_20_4287" x1="7.99058" y1="15.7967" x2="22.1771" y2="14.9144" gradientUnits="userSpaceOnUse">
<stop/>
<stop offset="0.96" stop-color="#313131"/>
<stop offset="1" stop-color="#333333"/>
</linearGradient>
<linearGradient id="paint6_linear_20_4287" x1="6.80356" y1="18.099" x2="21.8083" y2="15.6368" gradientUnits="userSpaceOnUse">
<stop/>
<stop offset="0.96" stop-color="#313131"/>
<stop offset="1" stop-color="#333333"/>
</linearGradient>
<linearGradient id="paint7_linear_20_4287" x1="7.4184" y1="17.2974" x2="22.7368" y2="13.1677" gradientUnits="userSpaceOnUse">
<stop/>
<stop offset="0.96" stop-color="#313131"/>
<stop offset="1" stop-color="#333333"/>
</linearGradient>
<linearGradient id="paint8_linear_20_4287" x1="6.89253" y1="18.8597" x2="22.6444" y2="12.8616" gradientUnits="userSpaceOnUse">
<stop/>
<stop offset="0.96" stop-color="#313131"/>
<stop offset="1" stop-color="#333333"/>
</linearGradient>
<linearGradient id="paint9_linear_20_4287" x1="6.69279" y1="20.0492" x2="22.6481" y2="12.0585" gradientUnits="userSpaceOnUse">
<stop/>
<stop offset="0.96" stop-color="#313131"/>
<stop offset="1" stop-color="#333333"/>
</linearGradient>
<linearGradient id="paint10_linear_20_4287" x1="6.75257" y1="20.9292" x2="22.6612" y2="10.8497" gradientUnits="userSpaceOnUse">
<stop/>
<stop offset="0.96" stop-color="#313131"/>
<stop offset="1" stop-color="#333333"/>
</linearGradient>
<linearGradient id="paint11_linear_20_4287" x1="6.34157" y1="23.4364" x2="22.1969" y2="10.9993" gradientUnits="userSpaceOnUse">
<stop/>
<stop offset="0.96" stop-color="#313131"/>
<stop offset="1" stop-color="#333333"/>
</linearGradient>
<linearGradient id="paint12_linear_20_4287" x1="6.89726" y1="23.7252" x2="22.1383" y2="9.07758" gradientUnits="userSpaceOnUse">
<stop/>
<stop offset="0.96" stop-color="#313131"/>
<stop offset="1" stop-color="#333333"/>
</linearGradient>
<linearGradient id="paint13_linear_20_4287" x1="7.1186" y1="25.4184" x2="21.6692" y2="8.31434" gradientUnits="userSpaceOnUse">
<stop/>
<stop offset="0.96" stop-color="#313131"/>
<stop offset="1" stop-color="#333333"/>
</linearGradient>
<linearGradient id="paint14_linear_20_4287" x1="7.62226" y1="26.7377" x2="21.1354" y2="7.17897" gradientUnits="userSpaceOnUse">
<stop/>
<stop offset="0.96" stop-color="#313131"/>
<stop offset="1" stop-color="#333333"/>
</linearGradient>
<linearGradient id="paint15_linear_20_4287" x1="8.3613" y1="27.7704" x2="20.4848" y2="5.80417" gradientUnits="userSpaceOnUse">
<stop/>
<stop offset="0.96" stop-color="#313131"/>
<stop offset="1" stop-color="#333333"/>
</linearGradient>
<linearGradient id="paint16_linear_20_4287" x1="9.3031" y1="28.6054" x2="19.6848" y2="4.32582" gradientUnits="userSpaceOnUse">
<stop/>
<stop offset="0.96" stop-color="#313131"/>
<stop offset="1" stop-color="#333333"/>
</linearGradient>
<linearGradient id="paint17_linear_20_4287" x1="10.2382" y1="30.1227" x2="18.6313" y2="3.35444" gradientUnits="userSpaceOnUse">
<stop/>
<stop offset="0.96" stop-color="#313131"/>
<stop offset="1" stop-color="#333333"/>
</linearGradient>
<linearGradient id="paint18_linear_20_4287" x1="11.5837" y1="30.6643" x2="17.5234" y2="1.90028" gradientUnits="userSpaceOnUse">
<stop/>
<stop offset="0.96" stop-color="#313131"/>
<stop offset="1" stop-color="#333333"/>
</linearGradient>
<linearGradient id="paint19_linear_20_4287" x1="12.8227" y1="32.2205" x2="16.0598" y2="1.03808" gradientUnits="userSpaceOnUse">
<stop/>
<stop offset="0.96" stop-color="#313131"/>
<stop offset="1" stop-color="#333333"/>
</linearGradient>
<linearGradient id="paint20_linear_20_4287" x1="14.4483" y1="32.9992" x2="14.5558" y2="-2.63268e-06" gradientUnits="userSpaceOnUse">
<stop/>
<stop offset="0.96" stop-color="#313131"/>
<stop offset="1" stop-color="#333333"/>
</linearGradient>
<radialGradient id="paint21_radial_20_4287" cx="0" cy="0" r="1" gradientUnits="userSpaceOnUse" gradientTransform="translate(14.4998 16.4993) rotate(180) scale(15.5475 15.5205)">
<stop stop-color="#CCCCCC"/>
<stop offset="1" stop-color="white"/>
</radialGradient>
<radialGradient id="paint22_radial_20_4287" cx="0" cy="0" r="1" gradientUnits="userSpaceOnUse" gradientTransform="translate(14.5002 16.4994) rotate(180) scale(15.5475 15.5205)">
<stop stop-color="#CCCCCC"/>
<stop offset="1" stop-color="white"/>
</radialGradient>
<radialGradient id="paint23_radial_20_4287" cx="0" cy="0" r="1" gradientUnits="userSpaceOnUse" gradientTransform="translate(14.5006 16.4993) rotate(180) scale(15.5475 15.5205)">
<stop stop-color="#CCCCCC"/>
<stop offset="1" stop-color="white"/>
</radialGradient>
<radialGradient id="paint24_radial_20_4287" cx="0" cy="0" r="1" gradientUnits="userSpaceOnUse" gradientTransform="translate(14.4998 16.4997) rotate(180) scale(15.5475 15.5205)">
<stop stop-color="#CCCCCC"/>
<stop offset="1" stop-color="white"/>
</radialGradient>
<radialGradient id="paint25_radial_20_4287" cx="0" cy="0" r="1" gradientUnits="userSpaceOnUse" gradientTransform="translate(14.4992 16.4994) rotate(180) scale(15.5475 15.5205)">
<stop stop-color="#CCCCCC"/>
<stop offset="1" stop-color="white"/>
</radialGradient>
<radialGradient id="paint26_radial_20_4287" cx="0" cy="0" r="1" gradientUnits="userSpaceOnUse" gradientTransform="translate(14.5002 16.4995) rotate(180) scale(15.5475 15.5205)">
<stop stop-color="#CCCCCC"/>
<stop offset="1" stop-color="white"/>
</radialGradient>
<radialGradient id="paint27_radial_20_4287" cx="0" cy="0" r="1" gradientUnits="userSpaceOnUse" gradientTransform="translate(14.4998 16.4998) rotate(180) scale(15.5475 15.5205)">
<stop stop-color="#CCCCCC"/>
<stop offset="1" stop-color="white"/>
</radialGradient>
<radialGradient id="paint28_radial_20_4287" cx="0" cy="0" r="1" gradientUnits="userSpaceOnUse" gradientTransform="translate(14.5012 16.4995) rotate(180) scale(15.5475 15.5205)">
<stop stop-color="#CCCCCC"/>
<stop offset="1" stop-color="white"/>
</radialGradient>
<radialGradient id="paint29_radial_20_4287" cx="0" cy="0" r="1" gradientUnits="userSpaceOnUse" gradientTransform="translate(14.5002 16.4995) rotate(180) scale(15.5475 15.5205)">
<stop stop-color="#CCCCCC"/>
<stop offset="1" stop-color="white"/>
</radialGradient>
<radialGradient id="paint30_radial_20_4287" cx="0" cy="0" r="1" gradientUnits="userSpaceOnUse" gradientTransform="translate(14.5004 16.4997) rotate(180) scale(15.5475 15.5205)">
<stop stop-color="#CCCCCC"/>
<stop offset="1" stop-color="white"/>
</radialGradient>
<radialGradient id="paint31_radial_20_4287" cx="0" cy="0" r="1" gradientUnits="userSpaceOnUse" gradientTransform="translate(14.4996 16.4996) rotate(180) scale(15.5475 15.5205)">
<stop stop-color="#CCCCCC"/>
<stop offset="1" stop-color="white"/>
</radialGradient>
<radialGradient id="paint32_radial_20_4287" cx="0" cy="0" r="1" gradientUnits="userSpaceOnUse" gradientTransform="translate(14.5001 16.4999) rotate(180) scale(15.5475 15.5205)">
<stop stop-color="#CCCCCC"/>
<stop offset="1" stop-color="white"/>
</radialGradient>
<radialGradient id="paint33_radial_20_4287" cx="0" cy="0" r="1" gradientUnits="userSpaceOnUse" gradientTransform="translate(14.4997 16.4995) rotate(180) scale(15.5475 15.5205)">
<stop stop-color="#CCCCCC"/>
<stop offset="1" stop-color="white"/>
</radialGradient>
<radialGradient id="paint34_radial_20_4287" cx="0" cy="0" r="1" gradientUnits="userSpaceOnUse" gradientTransform="translate(14.4999 16.4993) rotate(180) scale(15.5475 15.5205)">
<stop stop-color="#CCCCCC"/>
<stop offset="1" stop-color="white"/>
</radialGradient>
<radialGradient id="paint35_radial_20_4287" cx="0" cy="0" r="1" gradientUnits="userSpaceOnUse" gradientTransform="translate(14.4997 16.4996) rotate(180) scale(15.5475 15.5205)">
<stop stop-color="#CCCCCC"/>
<stop offset="1" stop-color="white"/>
</radialGradient>
<radialGradient id="paint36_radial_20_4287" cx="0" cy="0" r="1" gradientUnits="userSpaceOnUse" gradientTransform="translate(14.5001 16.4994) rotate(180) scale(15.5475 15.5205)">
<stop stop-color="#CCCCCC"/>
<stop offset="1" stop-color="white"/>
</radialGradient>
<radialGradient id="paint37_radial_20_4287" cx="0" cy="0" r="1" gradientUnits="userSpaceOnUse" gradientTransform="translate(14.4992 16.4993) rotate(180) scale(15.5475 15.5205)">
<stop stop-color="#CCCCCC"/>
<stop offset="1" stop-color="white"/>
</radialGradient>
<radialGradient id="paint38_radial_20_4287" cx="0" cy="0" r="1" gradientUnits="userSpaceOnUse" gradientTransform="translate(14.5003 16.4996) rotate(180) scale(15.5475 15.5205)">
<stop stop-color="#CCCCCC"/>
<stop offset="1" stop-color="white"/>
</radialGradient>
<radialGradient id="paint39_radial_20_4287" cx="0" cy="0" r="1" gradientUnits="userSpaceOnUse" gradientTransform="translate(14.4997 16.4995) rotate(180) scale(15.5475 15.5205)">
<stop stop-color="#CCCCCC"/>
<stop offset="1" stop-color="white"/>
</radialGradient>
<radialGradient id="paint40_radial_20_4287" cx="0" cy="0" r="1" gradientUnits="userSpaceOnUse" gradientTransform="translate(14.4995 16.4998) rotate(180) scale(15.5475 15.5205)">
<stop stop-color="#CCCCCC"/>
<stop offset="1" stop-color="white"/>
</radialGradient>
<radialGradient id="paint41_radial_20_4287" cx="0" cy="0" r="1" gradientUnits="userSpaceOnUse" gradientTransform="translate(14.5001 16.4996) rotate(180) scale(15.5475 15.5205)">
<stop stop-color="#CCCCCC"/>
<stop offset="1" stop-color="white"/>
</radialGradient>
</defs>
</svg>
