<svg width="30" height="30" viewBox="0 0 30 30" fill="none" xmlns="http://www.w3.org/2000/svg">
<path d="M15.1305 0.00049011C6.74253 -0.0665099 -0.0694653 6.74449 0.000534702 15.1325C0.0695347 23.2765 6.72453 29.9315 14.8685 30.0005C23.2565 30.0725 30.0705 23.2585 29.9985 14.8705C29.9315 6.72749 23.2755 0.0704901 15.1305 0.00049011Z" fill="#0086FF"/>
<path d="M14.9763 4.63452C15.5133 4.63452 15.9483 5.06952 15.9483 5.60652V6.85452C18.9303 8.24652 20.8833 10.5565 20.8833 13.1695C20.8833 14.7025 20.2133 16.1295 19.0563 17.3295C18.8343 17.5595 18.5263 17.6895 18.2043 17.6895H15.9503V19.5465H18.7803C19.3903 19.5465 20.4863 18.3885 21.0053 17.6905C21.0053 17.6905 21.0273 17.6565 21.0873 17.6385C21.1473 17.6205 26.2853 16.4415 26.2853 16.4415C26.3104 16.4348 26.3366 16.4339 26.362 16.4389C26.3874 16.4438 26.4113 16.4546 26.432 16.4702C26.4526 16.4858 26.4694 16.5059 26.4811 16.5291C26.4928 16.5522 26.499 16.5776 26.4993 16.6035V17.6845C26.4993 17.7545 26.4623 17.8145 26.3973 17.8425C26.0453 17.9925 24.8823 18.5325 24.3973 19.2045C23.1503 20.9415 22.1973 23.6715 20.0673 23.6715H11.1803C8.03334 23.6715 5.40034 21.1735 5.40234 17.8465C5.40234 17.7645 5.47235 17.6965 5.55535 17.6965H9.76734C9.91234 17.6965 10.0273 17.8135 10.0273 17.9565V18.7695C10.0273 19.2015 10.3763 19.5525 10.8093 19.5525H14.0043V17.6925H11.8223C13.1235 16.0462 13.8291 14.0079 13.8243 11.9095C13.8243 9.47252 12.8903 7.24952 11.3603 5.58752C12.2853 5.69552 13.1703 5.87952 14.0043 6.12452V5.60652C14.0043 5.06952 14.4393 4.63452 14.9763 4.63452ZM10.6433 7.46452C11.6406 8.72941 12.1818 10.2938 12.1793 11.9045C12.1793 13.3545 11.7493 14.7045 11.0093 15.8305H5.80934L10.6433 7.46452Z" fill="white"/>
</svg>
